<svg xmlns="http://www.w3.org/2000/svg" xmlns:xlink="http://www.w3.org/1999/xlink" width="112.829" height="72.204" viewBox="0 0 112.829 72.204"><defs><clipPath id="a"><rect width="112.829" height="72.204" fill="#8ebe4e"/></clipPath></defs><g transform="translate(0 0)"><g transform="translate(0 0)" clip-path="url(#a)"><path d="M112.295,67.022h0c1.348-3.323.058-7.012-2.867-8.2L83.948,48.483a2.681,2.681,0,0,0-3.371,1.684L77.8,57.006a2.68,2.68,0,0,0,1.244,3.557L104.525,70.9c2.926,1.187,6.422-.559,7.769-3.881M2.658,22.53A36.092,36.092,0,0,1,70.637,46.587l6.575,2.667-2.46,6.061-6.574-2.667A36.093,36.093,0,0,1,2.658,22.53M9.05,25.124A29.2,29.2,0,1,1,25.124,63.155,29.195,29.195,0,0,1,9.05,25.124" transform="translate(0 0)" fill="#8ebe4e" fill-rule="evenodd"/></g></g></svg>