<svg width="76" height="19" viewBox="0 0 76 19" fill="none" xmlns="http://www.w3.org/2000/svg">
<path d="M2.31996 6.048H1.39196L-3.90597e-05 0.384004H0.791961L1.87196 5.216H1.88796L2.96796 0.384004H3.73596L2.31996 6.048ZM6.10159 0.248004C6.40559 0.248004 6.67492 0.304004 6.90959 0.416004C7.14425 0.528004 7.33892 0.698671 7.49359 0.928004L7.04559 1.416C6.92825 1.24534 6.79225 1.11734 6.63759 1.032C6.48292 0.946671 6.31492 0.904004 6.13359 0.904004C5.91492 0.904004 5.72559 0.965337 5.56559 1.088C5.41092 1.21067 5.28025 1.37867 5.17359 1.592C5.06692 1.8 4.98692 2.04534 4.93359 2.328C4.88559 2.60534 4.86159 2.89867 4.86159 3.208C4.86159 3.53334 4.88825 3.83734 4.94159 4.12C5.00025 4.39734 5.08292 4.64 5.18959 4.848C5.30159 5.05067 5.44025 5.21067 5.60559 5.328C5.77092 5.44534 5.96559 5.504 6.18959 5.504C6.48825 5.504 6.71492 5.44 6.86959 5.312V3.56H6.12559V2.936H7.56559V5.696C7.40025 5.83467 7.20559 5.94667 6.98159 6.032C6.76292 6.112 6.49359 6.152 6.17359 6.152C5.84825 6.152 5.55759 6.08267 5.30159 5.944C5.04559 5.8 4.82692 5.6 4.64559 5.344C4.46959 5.088 4.33359 4.77867 4.23759 4.416C4.14692 4.05334 4.10159 3.65067 4.10159 3.208C4.10159 2.78134 4.14692 2.38934 4.23759 2.032C4.32825 1.66934 4.45892 1.35734 4.62959 1.096C4.80025 0.829337 5.00825 0.621337 5.25359 0.472004C5.50425 0.322671 5.78692 0.248004 6.10159 0.248004ZM11.8057 5.44C11.6617 5.664 11.4777 5.84534 11.2537 5.984C11.0297 6.11734 10.7577 6.184 10.4377 6.184C10.123 6.184 9.84038 6.10934 9.58971 5.96C9.33904 5.81067 9.12838 5.60267 8.95771 5.336C8.78704 5.06934 8.65638 4.75734 8.56571 4.4C8.47504 4.03734 8.42971 3.64267 8.42971 3.216C8.42971 2.78934 8.47504 2.39467 8.56571 2.032C8.66171 1.66934 8.79504 1.35734 8.96571 1.096C9.14171 0.829337 9.35238 0.621337 9.59771 0.472004C9.84838 0.322671 10.1284 0.248004 10.4377 0.248004C10.7257 0.248004 10.9897 0.304004 11.2297 0.416004C11.4697 0.528004 11.667 0.698671 11.8217 0.928004L11.3737 1.416C11.2564 1.24534 11.1204 1.12 10.9657 1.04C10.811 0.954671 10.6457 0.912004 10.4697 0.912004C10.251 0.912004 10.0617 0.973337 9.90171 1.096C9.74171 1.21867 9.60838 1.384 9.50171 1.592C9.40038 1.8 9.32304 2.04534 9.26971 2.328C9.21638 2.60534 9.18971 2.90134 9.18971 3.216C9.18971 3.53067 9.21638 3.82667 9.26971 4.104C9.32304 4.38134 9.40304 4.62667 9.50971 4.84C9.61638 5.048 9.74971 5.21334 9.90971 5.336C10.075 5.45867 10.267 5.52 10.4857 5.52C10.683 5.52 10.8564 5.46667 11.0057 5.36C11.1604 5.25334 11.283 5.12267 11.3737 4.968L11.8057 5.44ZM15.6026 5.44C15.4586 5.664 15.2746 5.84534 15.0506 5.984C14.8266 6.11734 14.5546 6.184 14.2346 6.184C13.9199 6.184 13.6373 6.10934 13.3866 5.96C13.1359 5.81067 12.9253 5.60267 12.7546 5.336C12.5839 5.06934 12.4533 4.75734 12.3626 4.4C12.2719 4.03734 12.2266 3.64267 12.2266 3.216C12.2266 2.78934 12.2719 2.39467 12.3626 2.032C12.4586 1.66934 12.5919 1.35734 12.7626 1.096C12.9386 0.829337 13.1493 0.621337 13.3946 0.472004C13.6453 0.322671 13.9253 0.248004 14.2346 0.248004C14.5226 0.248004 14.7866 0.304004 15.0266 0.416004C15.2666 0.528004 15.4639 0.698671 15.6186 0.928004L15.1706 1.416C15.0533 1.24534 14.9173 1.12 14.7626 1.04C14.6079 0.954671 14.4426 0.912004 14.2666 0.912004C14.0479 0.912004 13.8586 0.973337 13.6986 1.096C13.5386 1.21867 13.4053 1.384 13.2986 1.592C13.1973 1.8 13.1199 2.04534 13.0666 2.328C13.0133 2.60534 12.9866 2.90134 12.9866 3.216C12.9866 3.53067 13.0133 3.82667 13.0666 4.104C13.1199 4.38134 13.1999 4.62667 13.3066 4.84C13.4133 5.048 13.5466 5.21334 13.7066 5.336C13.8719 5.45867 14.0639 5.52 14.2826 5.52C14.4799 5.52 14.6533 5.46667 14.8026 5.36C14.9573 5.25334 15.0799 5.12267 15.1706 4.968L15.6026 5.44ZM16.0292 4.2V3.648H17.2932V4.2H16.0292ZM20.665 6.048L20.345 4.72H18.705L18.377 6.048H17.649L19.073 0.384004H20.025L21.417 6.048H20.665ZM19.553 1.056H19.521L18.801 4.152H20.249L19.553 1.056ZM22.0674 3.8147e-06H22.7474V2.608H22.7634C22.8221 2.4 22.9314 2.22934 23.0914 2.096C23.2514 1.96267 23.4487 1.896 23.6834 1.896C23.8914 1.896 24.0754 1.94934 24.2354 2.056C24.3954 2.15734 24.5287 2.304 24.6354 2.496C24.7474 2.68267 24.8301 2.90667 24.8834 3.168C24.9367 3.424 24.9634 3.70667 24.9634 4.016C24.9634 4.33067 24.9341 4.62134 24.8754 4.888C24.8221 5.14934 24.7394 5.376 24.6274 5.568C24.5207 5.76 24.3874 5.912 24.2274 6.024C24.0674 6.13067 23.8861 6.184 23.6834 6.184C23.4061 6.184 23.1954 6.112 23.0514 5.968C22.9127 5.81867 22.8114 5.63467 22.7474 5.416H22.7314V6.048H22.0674V3.8147e-06ZM22.7314 4.04C22.7314 4.25867 22.7474 4.46134 22.7794 4.648C22.8114 4.83467 22.8594 4.99734 22.9234 5.136C22.9874 5.27467 23.0674 5.384 23.1634 5.464C23.2647 5.544 23.3794 5.584 23.5074 5.584C23.6407 5.584 23.7527 5.544 23.8434 5.464C23.9394 5.384 24.0167 5.27467 24.0754 5.136C24.1394 4.99734 24.1847 4.83467 24.2114 4.648C24.2434 4.46134 24.2594 4.25867 24.2594 4.04C24.2594 3.82134 24.2434 3.61867 24.2114 3.432C24.1847 3.24 24.1394 3.07467 24.0754 2.936C24.0167 2.79734 23.9394 2.688 23.8434 2.608C23.7527 2.528 23.6407 2.488 23.5074 2.488C23.3794 2.488 23.2674 2.528 23.1714 2.608C23.0754 2.688 22.9927 2.79734 22.9234 2.936C22.8594 3.07467 22.8114 3.24 22.7794 3.432C22.7474 3.61867 22.7314 3.82134 22.7314 4.04ZM30.0951 2.64V3.288H25.8871V2.64H30.0951ZM30.0951 3.96V4.608H25.8871V3.96H30.0951ZM32.6473 6.048H31.8473L30.7673 2.032H31.4873L32.2553 5.328H32.2713L33.0073 2.032H33.7113L32.6473 6.048ZM37.1071 4.048C37.1071 4.368 37.0725 4.65867 37.0031 4.92C36.9391 5.18134 36.8431 5.40534 36.7151 5.592C36.5925 5.77867 36.4405 5.92534 36.2591 6.032C36.0778 6.13334 35.8725 6.184 35.6431 6.184C35.4191 6.184 35.2165 6.13334 35.0351 6.032C34.8538 5.92534 34.6991 5.77867 34.5711 5.592C34.4485 5.40534 34.3525 5.18134 34.2831 4.92C34.2191 4.65867 34.1871 4.368 34.1871 4.048C34.1871 3.728 34.2191 3.43467 34.2831 3.168C34.3525 2.90134 34.4485 2.67467 34.5711 2.488C34.6938 2.30134 34.8458 2.15734 35.0271 2.056C35.2085 1.94934 35.4138 1.896 35.6431 1.896C35.8725 1.896 36.0778 1.94934 36.2591 2.056C36.4405 2.15734 36.5925 2.30134 36.7151 2.488C36.8431 2.67467 36.9391 2.90134 37.0031 3.168C37.0725 3.43467 37.1071 3.728 37.1071 4.048ZM36.4031 4.04C36.4031 3.82134 36.3871 3.61867 36.3551 3.432C36.3285 3.24 36.2831 3.07467 36.2191 2.936C36.1551 2.79734 36.0751 2.688 35.9791 2.608C35.8831 2.528 35.7711 2.488 35.6431 2.488C35.5151 2.488 35.4031 2.528 35.3071 2.608C35.2111 2.688 35.1311 2.79734 35.0671 2.936C35.0085 3.07467 34.9631 3.24 34.9311 3.432C34.9045 3.61867 34.8911 3.82134 34.8911 4.04C34.8911 4.25867 34.9045 4.46134 34.9311 4.648C34.9631 4.83467 35.0085 4.99734 35.0671 5.136C35.1311 5.27467 35.2111 5.384 35.3071 5.464C35.4031 5.544 35.5151 5.584 35.6431 5.584C35.7765 5.584 35.8911 5.544 35.9871 5.464C36.0831 5.384 36.1605 5.27467 36.2191 5.136C36.2831 4.99734 36.3285 4.83467 36.3551 4.648C36.3871 4.46134 36.4031 4.25867 36.4031 4.04ZM38.0518 6.048V3.8147e-06H38.7398V6.048H38.0518ZM41.3431 6.04C41.2845 6.072 41.2071 6.09867 41.1111 6.12C41.0151 6.14134 40.9191 6.152 40.8231 6.152C40.5138 6.152 40.2925 6.05334 40.1591 5.856C40.0311 5.65867 39.9671 5.384 39.9671 5.032V2.584H39.4551V2.032H39.9591V0.960004H40.6231V2.032H41.3351V2.584H40.6231V4.896C40.6231 5.13067 40.6578 5.30134 40.7271 5.408C40.7965 5.50934 40.9005 5.56 41.0391 5.56C41.0871 5.56 41.1378 5.55467 41.1911 5.544C41.2445 5.528 41.2898 5.512 41.3271 5.496L41.3431 6.04ZM43.7485 6.048C43.7272 5.92534 43.7112 5.80267 43.7005 5.68C43.6899 5.55734 43.6845 5.45867 43.6845 5.384H43.6685C43.6099 5.624 43.5032 5.81334 43.3485 5.952C43.1992 6.08534 42.9912 6.152 42.7245 6.152C42.6125 6.152 42.4979 6.13067 42.3805 6.088C42.2632 6.04534 42.1565 5.976 42.0605 5.88C41.9699 5.784 41.8925 5.66134 41.8285 5.512C41.7699 5.36267 41.7405 5.17867 41.7405 4.96C41.7405 4.672 41.7912 4.43734 41.8925 4.256C41.9992 4.06934 42.1299 3.92534 42.2845 3.824C42.4445 3.71734 42.6205 3.64534 42.8125 3.608C43.0045 3.57067 43.1885 3.552 43.3645 3.552H43.6285V3.376C43.6285 3.06134 43.5672 2.83467 43.4445 2.696C43.3272 2.552 43.1672 2.48 42.9645 2.48C42.8152 2.48 42.6765 2.51734 42.5485 2.592C42.4205 2.66667 42.3112 2.76534 42.2205 2.888L41.8765 2.464C42.0099 2.28267 42.1832 2.144 42.3965 2.048C42.6099 1.94667 42.8205 1.896 43.0285 1.896C43.2579 1.896 43.4499 1.93334 43.6045 2.008C43.7645 2.08267 43.8925 2.192 43.9885 2.336C44.0845 2.48 44.1512 2.65867 44.1885 2.872C44.2312 3.08 44.2525 3.31734 44.2525 3.584V5.208C44.2525 5.34667 44.2579 5.49867 44.2685 5.664C44.2792 5.824 44.2925 5.952 44.3085 6.048H43.7485ZM43.6445 4.072H43.3485C43.2259 4.072 43.1059 4.08267 42.9885 4.104C42.8765 4.12534 42.7752 4.168 42.6845 4.232C42.5939 4.29067 42.5192 4.37334 42.4605 4.48C42.4072 4.58667 42.3805 4.72267 42.3805 4.888C42.3805 5.13334 42.4339 5.31467 42.5405 5.432C42.6472 5.544 42.7699 5.6 42.9085 5.6C43.0472 5.6 43.1619 5.56 43.2525 5.48C43.3485 5.39467 43.4259 5.288 43.4845 5.16C43.5432 5.032 43.5832 4.89334 43.6045 4.744C43.6312 4.58934 43.6445 4.44267 43.6445 4.304V4.072ZM47.3488 4.04C47.3488 3.82134 47.3328 3.61867 47.3008 3.432C47.2688 3.24 47.2182 3.07467 47.1488 2.936C47.0848 2.79734 47.0048 2.688 46.9088 2.608C46.8128 2.528 46.7008 2.488 46.5728 2.488C46.4395 2.488 46.3248 2.528 46.2288 2.608C46.1382 2.688 46.0608 2.79734 45.9968 2.936C45.9382 3.07467 45.8928 3.24 45.8608 3.432C45.8342 3.61867 45.8208 3.82134 45.8208 4.04C45.8208 4.25867 45.8342 4.46134 45.8608 4.648C45.8928 4.83467 45.9382 4.99734 45.9968 5.136C46.0608 5.27467 46.1382 5.384 46.2288 5.464C46.3248 5.544 46.4395 5.584 46.5728 5.584C46.7008 5.584 46.8128 5.544 46.9088 5.464C47.0102 5.384 47.0928 5.27467 47.1568 5.136C47.2208 4.99734 47.2688 4.83467 47.3008 4.648C47.3328 4.46134 47.3488 4.25867 47.3488 4.04ZM47.3488 2.032H48.0128V6.048C48.0128 6.32 47.9862 6.57067 47.9328 6.8C47.8848 7.03467 47.7995 7.23734 47.6768 7.408C47.5595 7.584 47.4022 7.72 47.2048 7.816C47.0128 7.91734 46.7755 7.968 46.4928 7.968C46.2208 7.968 45.9622 7.90934 45.7168 7.792C45.4768 7.68 45.2795 7.528 45.1248 7.336L45.5488 6.856C45.6662 7 45.8075 7.11734 45.9728 7.208C46.1382 7.304 46.3195 7.352 46.5168 7.352C46.6822 7.352 46.8182 7.31734 46.9248 7.248C47.0315 7.184 47.1168 7.09334 47.1808 6.976C47.2448 6.85867 47.2875 6.72 47.3088 6.56C47.3355 6.4 47.3488 6.22934 47.3488 6.048V5.416H47.3328C47.2688 5.63467 47.1648 5.81867 47.0208 5.968C46.8822 6.112 46.6742 6.184 46.3968 6.184C46.1942 6.184 46.0128 6.13067 45.8528 6.024C45.6928 5.912 45.5568 5.76 45.4448 5.568C45.3382 5.376 45.2555 5.14934 45.1968 4.888C45.1435 4.62134 45.1168 4.33067 45.1168 4.016C45.1168 3.70667 45.1435 3.424 45.1968 3.168C45.2502 2.90667 45.3302 2.68267 45.4368 2.496C45.5488 2.304 45.6848 2.15734 45.8448 2.056C46.0048 1.94934 46.1888 1.896 46.3968 1.896C46.6315 1.896 46.8288 1.96267 46.9888 2.096C47.1542 2.22934 47.2662 2.4 47.3248 2.608H47.3488V2.032ZM49.6486 4.216C49.6486 4.408 49.6646 4.58667 49.6966 4.752C49.7339 4.91734 49.7846 5.06134 49.8486 5.184C49.9179 5.30667 50.0033 5.40267 50.1046 5.472C50.2059 5.54134 50.3233 5.576 50.4566 5.576C50.6379 5.576 50.7819 5.52 50.8886 5.408C50.9953 5.296 51.0806 5.16267 51.1446 5.008L51.6566 5.304C51.5499 5.56 51.3953 5.77067 51.1926 5.936C50.9953 6.10134 50.7419 6.184 50.4326 6.184C49.9739 6.184 49.6139 5.99734 49.3526 5.624C49.0913 5.24534 48.9606 4.72 48.9606 4.048C48.9606 3.728 48.9953 3.43734 49.0646 3.176C49.1339 2.90934 49.2326 2.68267 49.3606 2.496C49.4886 2.304 49.6433 2.15734 49.8246 2.056C50.0059 1.94934 50.2059 1.896 50.4246 1.896C50.6699 1.896 50.8779 1.94934 51.0486 2.056C51.2193 2.15734 51.3579 2.29867 51.4646 2.48C51.5766 2.656 51.6566 2.86667 51.7046 3.112C51.7526 3.352 51.7766 3.61067 51.7766 3.888V4.216H49.6486ZM51.0886 3.664C51.0886 3.312 51.0326 3.02934 50.9206 2.816C50.8139 2.59734 50.6433 2.488 50.4086 2.488C50.2699 2.488 50.1526 2.53067 50.0566 2.616C49.9659 2.696 49.8913 2.79734 49.8326 2.92C49.7739 3.03734 49.7313 3.16534 49.7046 3.304C49.6779 3.43734 49.6646 3.55734 49.6646 3.664H51.0886ZM52.4042 4.2V3.648H53.6682V4.2H52.4042ZM56.552 4.04C56.552 3.82134 56.536 3.61867 56.504 3.432C56.472 3.24 56.4213 3.07467 56.352 2.936C56.288 2.79734 56.208 2.688 56.112 2.608C56.016 2.528 55.904 2.488 55.776 2.488C55.6426 2.488 55.528 2.528 55.432 2.608C55.3413 2.688 55.264 2.79734 55.2 2.936C55.1413 3.07467 55.096 3.24 55.064 3.432C55.0373 3.61867 55.024 3.82134 55.024 4.04C55.024 4.25867 55.0373 4.46134 55.064 4.648C55.096 4.83467 55.1413 4.99734 55.2 5.136C55.264 5.27467 55.3413 5.384 55.432 5.464C55.528 5.544 55.6426 5.584 55.776 5.584C55.904 5.584 56.016 5.544 56.112 5.464C56.2133 5.384 56.296 5.27467 56.36 5.136C56.424 4.99734 56.472 4.83467 56.504 4.648C56.536 4.46134 56.552 4.25867 56.552 4.04ZM56.552 2.032H57.216V6.048C57.216 6.32 57.1893 6.57067 57.136 6.8C57.088 7.03467 57.0026 7.23734 56.88 7.408C56.7626 7.584 56.6053 7.72 56.408 7.816C56.216 7.91734 55.9786 7.968 55.696 7.968C55.424 7.968 55.1653 7.90934 54.92 7.792C54.68 7.68 54.4826 7.528 54.328 7.336L54.752 6.856C54.8693 7 55.0106 7.11734 55.176 7.208C55.3413 7.304 55.5226 7.352 55.72 7.352C55.8853 7.352 56.0213 7.31734 56.128 7.248C56.2346 7.184 56.32 7.09334 56.384 6.976C56.448 6.85867 56.4906 6.72 56.512 6.56C56.5386 6.4 56.552 6.22934 56.552 6.048V5.416H56.536C56.472 5.63467 56.368 5.81867 56.224 5.968C56.0853 6.112 55.8773 6.184 55.6 6.184C55.3973 6.184 55.216 6.13067 55.056 6.024C54.896 5.912 54.76 5.76 54.648 5.568C54.5413 5.376 54.4586 5.14934 54.4 4.888C54.3466 4.62134 54.32 4.33067 54.32 4.016C54.32 3.70667 54.3466 3.424 54.4 3.168C54.4533 2.90667 54.5333 2.68267 54.64 2.496C54.752 2.304 54.888 2.15734 55.048 2.056C55.208 1.94934 55.392 1.896 55.6 1.896C55.8346 1.896 56.032 1.96267 56.192 2.096C56.3573 2.22934 56.4693 2.4 56.528 2.608H56.552V2.032ZM60.1157 6.048C60.0944 5.92534 60.0784 5.80267 60.0677 5.68C60.057 5.55734 60.0517 5.45867 60.0517 5.384H60.0357C59.977 5.624 59.8704 5.81334 59.7157 5.952C59.5664 6.08534 59.3584 6.152 59.0917 6.152C58.9797 6.152 58.865 6.13067 58.7477 6.088C58.6304 6.04534 58.5237 5.976 58.4277 5.88C58.337 5.784 58.2597 5.66134 58.1957 5.512C58.137 5.36267 58.1077 5.17867 58.1077 4.96C58.1077 4.672 58.1584 4.43734 58.2597 4.256C58.3664 4.06934 58.497 3.92534 58.6517 3.824C58.8117 3.71734 58.9877 3.64534 59.1797 3.608C59.3717 3.57067 59.5557 3.552 59.7317 3.552H59.9957V3.376C59.9957 3.06134 59.9344 2.83467 59.8117 2.696C59.6944 2.552 59.5344 2.48 59.3317 2.48C59.1824 2.48 59.0437 2.51734 58.9157 2.592C58.7877 2.66667 58.6784 2.76534 58.5877 2.888L58.2437 2.464C58.377 2.28267 58.5504 2.144 58.7637 2.048C58.977 1.94667 59.1877 1.896 59.3957 1.896C59.625 1.896 59.817 1.93334 59.9717 2.008C60.1317 2.08267 60.2597 2.192 60.3557 2.336C60.4517 2.48 60.5184 2.65867 60.5557 2.872C60.5984 3.08 60.6197 3.31734 60.6197 3.584V5.208C60.6197 5.34667 60.625 5.49867 60.6357 5.664C60.6464 5.824 60.6597 5.952 60.6757 6.048H60.1157ZM60.0117 4.072H59.7157C59.593 4.072 59.473 4.08267 59.3557 4.104C59.2437 4.12534 59.1424 4.168 59.0517 4.232C58.961 4.29067 58.8864 4.37334 58.8277 4.48C58.7744 4.58667 58.7477 4.72267 58.7477 4.888C58.7477 5.13334 58.801 5.31467 58.9077 5.432C59.0144 5.544 59.137 5.6 59.2757 5.6C59.4144 5.6 59.529 5.56 59.6197 5.48C59.7157 5.39467 59.793 5.288 59.8517 5.16C59.9104 5.032 59.9504 4.89334 59.9717 4.744C59.9984 4.58934 60.0117 4.44267 60.0117 4.304V4.072ZM63.14 6.04C63.0814 6.072 63.004 6.09867 62.908 6.12C62.812 6.14134 62.716 6.152 62.62 6.152C62.3107 6.152 62.0894 6.05334 61.956 5.856C61.828 5.65867 61.764 5.384 61.764 5.032V2.584H61.252V2.032H61.756V0.960004H62.42V2.032H63.132V2.584H62.42V4.896C62.42 5.13067 62.4547 5.30134 62.524 5.408C62.5934 5.50934 62.6974 5.56 62.836 5.56C62.884 5.56 62.9347 5.55467 62.988 5.544C63.0414 5.528 63.0867 5.512 63.124 5.496L63.14 6.04ZM64.2814 4.216C64.2814 4.408 64.2974 4.58667 64.3294 4.752C64.3667 4.91734 64.4174 5.06134 64.4814 5.184C64.5507 5.30667 64.6361 5.40267 64.7374 5.472C64.8387 5.54134 64.9561 5.576 65.0894 5.576C65.2707 5.576 65.4147 5.52 65.5214 5.408C65.6281 5.296 65.7134 5.16267 65.7774 5.008L66.2894 5.304C66.1827 5.56 66.0281 5.77067 65.8254 5.936C65.6281 6.10134 65.3747 6.184 65.0654 6.184C64.6067 6.184 64.2467 5.99734 63.9854 5.624C63.7241 5.24534 63.5934 4.72 63.5934 4.048C63.5934 3.728 63.6281 3.43734 63.6974 3.176C63.7667 2.90934 63.8654 2.68267 63.9934 2.496C64.1214 2.304 64.2761 2.15734 64.4574 2.056C64.6387 1.94934 64.8387 1.896 65.0574 1.896C65.3027 1.896 65.5107 1.94934 65.6814 2.056C65.8521 2.15734 65.9907 2.29867 66.0974 2.48C66.2094 2.656 66.2894 2.86667 66.3374 3.112C66.3854 3.352 66.4094 3.61067 66.4094 3.888V4.216H64.2814ZM65.7214 3.664C65.7214 3.312 65.6654 3.02934 65.5534 2.816C65.4467 2.59734 65.2761 2.488 65.0414 2.488C64.9027 2.488 64.7854 2.53067 64.6894 2.616C64.5987 2.696 64.5241 2.79734 64.4654 2.92C64.4067 3.03734 64.3641 3.16534 64.3374 3.304C64.3107 3.43734 64.2974 3.55734 64.2974 3.664H65.7214ZM69.341 6.048V5.416H69.325C69.261 5.63467 69.157 5.81867 69.013 5.968C68.8744 6.112 68.6664 6.184 68.389 6.184C68.1864 6.184 68.005 6.13067 67.845 6.024C67.685 5.912 67.549 5.76 67.437 5.568C67.3304 5.376 67.2477 5.14934 67.189 4.888C67.1357 4.62134 67.109 4.33067 67.109 4.016C67.109 3.70667 67.1357 3.424 67.189 3.168C67.2424 2.90667 67.3224 2.68267 67.429 2.496C67.541 2.304 67.677 2.15734 67.837 2.056C67.997 1.94934 68.181 1.896 68.389 1.896C68.6237 1.896 68.821 1.96267 68.981 2.096C69.141 2.22934 69.2504 2.4 69.309 2.608H69.325V3.8147e-06H70.005V6.048H69.341ZM69.341 4.04C69.341 3.82134 69.325 3.61867 69.293 3.432C69.261 3.24 69.2104 3.07467 69.141 2.936C69.077 2.79734 68.997 2.688 68.901 2.608C68.805 2.528 68.693 2.488 68.565 2.488C68.4317 2.488 68.317 2.528 68.221 2.608C68.1304 2.688 68.053 2.79734 67.989 2.936C67.9304 3.07467 67.885 3.24 67.853 3.432C67.8264 3.61867 67.813 3.82134 67.813 4.04C67.813 4.25867 67.8264 4.46134 67.853 4.648C67.885 4.83467 67.9304 4.99734 67.989 5.136C68.053 5.27467 68.1304 5.384 68.221 5.464C68.317 5.544 68.4317 5.584 68.565 5.584C68.693 5.584 68.805 5.544 68.901 5.464C69.0024 5.384 69.085 5.27467 69.149 5.136C69.213 4.99734 69.261 4.83467 69.293 4.648C69.325 4.46134 69.341 4.25867 69.341 4.04ZM2.67196 16.816C2.45329 17.0613 2.15196 17.184 1.76796 17.184C1.52796 17.184 1.31729 17.1333 1.13596 17.032C0.954628 16.9253 0.802628 16.7787 0.679961 16.592C0.562628 16.4 0.471961 16.1733 0.407961 15.912C0.349294 15.6507 0.319961 15.36 0.319961 15.04C0.319961 14.72 0.349294 14.4293 0.407961 14.168C0.471961 13.9067 0.565294 13.6827 0.687961 13.496C0.810628 13.304 0.962628 13.1573 1.14396 13.056C1.32529 12.9493 1.53596 12.896 1.77596 12.896C1.98929 12.896 2.16796 12.9333 2.31196 13.008C2.46129 13.0773 2.57863 13.1547 2.66396 13.24L2.31996 13.752C2.25596 13.6773 2.18129 13.6187 2.09596 13.576C2.01063 13.528 1.90663 13.504 1.78396 13.504C1.65596 13.504 1.54396 13.544 1.44796 13.624C1.35196 13.6987 1.27196 13.8053 1.20796 13.944C1.14929 14.0773 1.10396 14.2373 1.07196 14.424C1.03996 14.6107 1.02396 14.816 1.02396 15.04C1.02396 15.264 1.03729 15.4693 1.06396 15.656C1.09596 15.8373 1.14396 15.9947 1.20796 16.128C1.27196 16.2613 1.35463 16.3653 1.45596 16.44C1.55729 16.5147 1.67996 16.552 1.82396 16.552C1.94663 16.552 2.05063 16.528 2.13596 16.48C2.22663 16.432 2.30396 16.368 2.36796 16.288L2.67196 16.816ZM5.02196 17.048C5.00063 16.9253 4.98463 16.8027 4.97396 16.68C4.96329 16.5573 4.95796 16.4587 4.95796 16.384H4.94196C4.88329 16.624 4.77663 16.8133 4.62196 16.952C4.47263 17.0853 4.26463 17.152 3.99796 17.152C3.88596 17.152 3.77129 17.1307 3.65396 17.088C3.53663 17.0453 3.42996 16.976 3.33396 16.88C3.24329 16.784 3.16596 16.6613 3.10196 16.512C3.04329 16.3627 3.01396 16.1787 3.01396 15.96C3.01396 15.672 3.06463 15.4373 3.16596 15.256C3.27263 15.0693 3.40329 14.9253 3.55796 14.824C3.71796 14.7173 3.89396 14.6453 4.08596 14.608C4.27796 14.5707 4.46196 14.552 4.63796 14.552H4.90196V14.376C4.90196 14.0613 4.84063 13.8347 4.71796 13.696C4.60063 13.552 4.44063 13.48 4.23796 13.48C4.08863 13.48 3.94996 13.5173 3.82196 13.592C3.69396 13.6667 3.58463 13.7653 3.49396 13.888L3.14996 13.464C3.28329 13.2827 3.45663 13.144 3.66996 13.048C3.88329 12.9467 4.09396 12.896 4.30196 12.896C4.53129 12.896 4.72329 12.9333 4.87796 13.008C5.03796 13.0827 5.16596 13.192 5.26196 13.336C5.35796 13.48 5.42463 13.6587 5.46196 13.872C5.50463 14.08 5.52596 14.3173 5.52596 14.584V16.208C5.52596 16.3467 5.53129 16.4987 5.54196 16.664C5.55263 16.824 5.56596 16.952 5.58196 17.048H5.02196ZM4.91796 15.072H4.62196C4.49929 15.072 4.37929 15.0827 4.26196 15.104C4.14996 15.1253 4.04863 15.168 3.95796 15.232C3.86729 15.2907 3.79263 15.3733 3.73396 15.48C3.68063 15.5867 3.65396 15.7227 3.65396 15.888C3.65396 16.1333 3.70729 16.3147 3.81396 16.432C3.92063 16.544 4.04329 16.6 4.18196 16.6C4.32063 16.6 4.43529 16.56 4.52596 16.48C4.62196 16.3947 4.69929 16.288 4.75796 16.16C4.81663 16.032 4.85663 15.8933 4.87796 15.744C4.90463 15.5893 4.91796 15.4427 4.91796 15.304V15.072ZM6.61427 17.048V11H7.30227V17.048H6.61427ZM10.6016 16.816C10.383 17.0613 10.0816 17.184 9.69765 17.184C9.45765 17.184 9.24698 17.1333 9.06565 17.032C8.88432 16.9253 8.73232 16.7787 8.60965 16.592C8.49232 16.4 8.40165 16.1733 8.33765 15.912C8.27898 15.6507 8.24965 15.36 8.24965 15.04C8.24965 14.72 8.27898 14.4293 8.33765 14.168C8.40165 13.9067 8.49498 13.6827 8.61765 13.496C8.74032 13.304 8.89232 13.1573 9.07365 13.056C9.25498 12.9493 9.46565 12.896 9.70565 12.896C9.91898 12.896 10.0976 12.9333 10.2416 13.008C10.391 13.0773 10.5083 13.1547 10.5936 13.24L10.2496 13.752C10.1856 13.6773 10.111 13.6187 10.0256 13.576C9.94032 13.528 9.83632 13.504 9.71365 13.504C9.58565 13.504 9.47365 13.544 9.37765 13.624C9.28165 13.6987 9.20165 13.8053 9.13765 13.944C9.07898 14.0773 9.03365 14.2373 9.00165 14.424C8.96965 14.6107 8.95365 14.816 8.95365 15.04C8.95365 15.264 8.96698 15.4693 8.99365 15.656C9.02565 15.8373 9.07365 15.9947 9.13765 16.128C9.20165 16.2613 9.28432 16.3653 9.38565 16.44C9.48698 16.5147 9.60965 16.552 9.75365 16.552C9.87632 16.552 9.98032 16.528 10.0656 16.48C10.1563 16.432 10.2336 16.368 10.2976 16.288L10.6016 16.816ZM11.9916 11.84C11.9916 11.9733 11.949 12.0827 11.8636 12.168C11.7836 12.2533 11.685 12.296 11.5676 12.296C11.445 12.296 11.3436 12.2533 11.2636 12.168C11.1836 12.0827 11.1436 11.9733 11.1436 11.84C11.1436 11.712 11.1836 11.6053 11.2636 11.52C11.3436 11.4293 11.445 11.384 11.5676 11.384C11.6903 11.384 11.7916 11.4293 11.8716 11.52C11.9516 11.6053 11.9916 11.712 11.9916 11.84ZM11.2236 17.048V13.032H11.9036V17.048H11.2236ZM13.739 13.032V15.592C13.739 15.704 13.7444 15.8187 13.755 15.936C13.7657 16.0533 13.7897 16.16 13.827 16.256C13.8697 16.352 13.9284 16.4293 14.003 16.488C14.0777 16.5467 14.179 16.576 14.307 16.576C14.419 16.576 14.523 16.5467 14.619 16.488C14.715 16.424 14.7977 16.3387 14.867 16.232C14.9364 16.12 14.9897 15.9893 15.027 15.84C15.0644 15.6853 15.083 15.5173 15.083 15.336V13.032H15.763V16.032C15.763 16.192 15.7657 16.3653 15.771 16.552C15.7764 16.7333 15.7844 16.8987 15.795 17.048H15.147C15.131 16.9147 15.1177 16.7813 15.107 16.648C15.1017 16.5147 15.099 16.416 15.099 16.352H15.083C15.0084 16.5867 14.883 16.784 14.707 16.944C14.5364 17.104 14.3257 17.184 14.075 17.184C13.8564 17.184 13.6804 17.1387 13.547 17.048C13.4137 16.9573 13.3097 16.8373 13.235 16.688C13.1657 16.5387 13.1177 16.368 13.091 16.176C13.0644 15.984 13.051 15.7893 13.051 15.592V13.032H13.739ZM17.6462 13.728C17.7049 13.4933 17.8169 13.296 17.9822 13.136C18.1529 12.976 18.3715 12.896 18.6382 12.896C18.7822 12.896 18.9049 12.92 19.0062 12.968C19.1129 13.016 19.2009 13.08 19.2702 13.16C19.3449 13.2347 19.4035 13.3227 19.4462 13.424C19.4889 13.52 19.5235 13.6213 19.5502 13.728H19.5662C19.6035 13.632 19.6515 13.536 19.7102 13.44C19.7689 13.3387 19.8409 13.248 19.9262 13.168C20.0169 13.088 20.1182 13.024 20.2302 12.976C20.3475 12.9227 20.4782 12.896 20.6222 12.896C20.8355 12.896 21.0089 12.9413 21.1422 13.032C21.2809 13.1227 21.3849 13.2427 21.4542 13.392C21.5289 13.5413 21.5795 13.712 21.6062 13.904C21.6329 14.096 21.6462 14.2907 21.6462 14.488V17.048H20.9582V14.488C20.9582 14.376 20.9529 14.2613 20.9422 14.144C20.9315 14.0267 20.9049 13.92 20.8622 13.824C20.8249 13.728 20.7689 13.6507 20.6942 13.592C20.6195 13.5333 20.5182 13.504 20.3902 13.504C20.2782 13.504 20.1742 13.536 20.0782 13.6C19.9875 13.6587 19.9075 13.744 19.8382 13.856C19.7742 13.9627 19.7235 14.0933 19.6862 14.248C19.6489 14.3973 19.6302 14.5627 19.6302 14.744V17.048H18.9582V14.488C18.9582 14.376 18.9529 14.2613 18.9422 14.144C18.9315 14.0267 18.9049 13.92 18.8622 13.824C18.8249 13.728 18.7689 13.6507 18.6942 13.592C18.6195 13.5333 18.5182 13.504 18.3902 13.504C18.2782 13.504 18.1742 13.536 18.0782 13.6C17.9875 13.6587 17.9075 13.744 17.8382 13.856C17.7742 13.9627 17.7235 14.0933 17.6862 14.248C17.6542 14.3973 17.6382 14.5627 17.6382 14.744V17.048H16.9662V14.048C16.9662 13.888 16.9635 13.7173 16.9582 13.536C16.9529 13.3493 16.9449 13.1813 16.9342 13.032H17.5822C17.5982 13.1653 17.6089 13.2987 17.6142 13.432C17.6249 13.5653 17.6302 13.664 17.6302 13.728H17.6462ZM26.4298 16.816C26.2111 17.0613 25.9098 17.184 25.5258 17.184C25.2858 17.184 25.0751 17.1333 24.8938 17.032C24.7124 16.9253 24.5604 16.7787 24.4378 16.592C24.3204 16.4 24.2298 16.1733 24.1658 15.912C24.1071 15.6507 24.0778 15.36 24.0778 15.04C24.0778 14.72 24.1071 14.4293 24.1658 14.168C24.2298 13.9067 24.3231 13.6827 24.4458 13.496C24.5684 13.304 24.7204 13.1573 24.9018 13.056C25.0831 12.9493 25.2938 12.896 25.5338 12.896C25.7471 12.896 25.9258 12.9333 26.0698 13.008C26.2191 13.0773 26.3364 13.1547 26.4218 13.24L26.0778 13.752C26.0138 13.6773 25.9391 13.6187 25.8538 13.576C25.7684 13.528 25.6644 13.504 25.5418 13.504C25.4138 13.504 25.3018 13.544 25.2058 13.624C25.1098 13.6987 25.0298 13.8053 24.9658 13.944C24.9071 14.0773 24.8618 14.2373 24.8298 14.424C24.7978 14.6107 24.7818 14.816 24.7818 15.04C24.7818 15.264 24.7951 15.4693 24.8218 15.656C24.8538 15.8373 24.9018 15.9947 24.9658 16.128C25.0298 16.2613 25.1124 16.3653 25.2138 16.44C25.3151 16.5147 25.4378 16.552 25.5818 16.552C25.7044 16.552 25.8084 16.528 25.8938 16.48C25.9844 16.432 26.0618 16.368 26.1258 16.288L26.4298 16.816ZM27.7398 17.048H27.0518V11H27.7398V13.712H27.7558C27.8251 13.488 27.9451 13.296 28.1158 13.136C28.2864 12.976 28.4971 12.896 28.7478 12.896C28.9611 12.896 29.1344 12.9413 29.2678 13.032C29.4064 13.1227 29.5104 13.2427 29.5798 13.392C29.6544 13.5413 29.7051 13.712 29.7318 13.904C29.7584 14.096 29.7718 14.2907 29.7718 14.488V17.048H29.0838V14.488C29.0838 14.376 29.0784 14.2613 29.0678 14.144C29.0571 14.0267 29.0304 13.92 28.9878 13.824C28.9504 13.728 28.8944 13.6507 28.8198 13.592C28.7451 13.5333 28.6438 13.504 28.5158 13.504C28.4038 13.504 28.2998 13.536 28.2038 13.6C28.1078 13.6587 28.0251 13.744 27.9558 13.856C27.8864 13.9627 27.8331 14.0933 27.7958 14.248C27.7584 14.3973 27.7398 14.5627 27.7398 14.744V17.048ZM32.6391 17.048C32.6178 16.9253 32.6018 16.8027 32.5911 16.68C32.5805 16.5573 32.5751 16.4587 32.5751 16.384H32.5591C32.5005 16.624 32.3938 16.8133 32.2391 16.952C32.0898 17.0853 31.8818 17.152 31.6151 17.152C31.5031 17.152 31.3885 17.1307 31.2711 17.088C31.1538 17.0453 31.0471 16.976 30.9511 16.88C30.8605 16.784 30.7831 16.6613 30.7191 16.512C30.6605 16.3627 30.6311 16.1787 30.6311 15.96C30.6311 15.672 30.6818 15.4373 30.7831 15.256C30.8898 15.0693 31.0205 14.9253 31.1751 14.824C31.3351 14.7173 31.5111 14.6453 31.7031 14.608C31.8951 14.5707 32.0791 14.552 32.2551 14.552H32.5191V14.376C32.5191 14.0613 32.4578 13.8347 32.3351 13.696C32.2178 13.552 32.0578 13.48 31.8551 13.48C31.7058 13.48 31.5671 13.5173 31.4391 13.592C31.3111 13.6667 31.2018 13.7653 31.1111 13.888L30.7671 13.464C30.9005 13.2827 31.0738 13.144 31.2871 13.048C31.5005 12.9467 31.7111 12.896 31.9191 12.896C32.1485 12.896 32.3405 12.9333 32.4951 13.008C32.6551 13.0827 32.7831 13.192 32.8791 13.336C32.9751 13.48 33.0418 13.6587 33.0791 13.872C33.1218 14.08 33.1431 14.3173 33.1431 14.584V16.208C33.1431 16.3467 33.1485 16.4987 33.1591 16.664C33.1698 16.824 33.1831 16.952 33.1991 17.048H32.6391ZM32.5351 15.072H32.2391C32.1165 15.072 31.9965 15.0827 31.8791 15.104C31.7671 15.1253 31.6658 15.168 31.5751 15.232C31.4845 15.2907 31.4098 15.3733 31.3511 15.48C31.2978 15.5867 31.2711 15.7227 31.2711 15.888C31.2711 16.1333 31.3245 16.3147 31.4311 16.432C31.5378 16.544 31.6605 16.6 31.7991 16.6C31.9378 16.6 32.0525 16.56 32.1431 16.48C32.2391 16.3947 32.3165 16.288 32.3751 16.16C32.4338 16.032 32.4738 15.8933 32.4951 15.744C32.5218 15.5893 32.5351 15.4427 32.5351 15.304V15.072ZM36.2715 17.048V14.488C36.2715 14.376 36.2661 14.2613 36.2555 14.144C36.2448 14.0267 36.2181 13.92 36.1755 13.824C36.1381 13.728 36.0821 13.6507 36.0075 13.592C35.9328 13.5333 35.8315 13.504 35.7035 13.504C35.5915 13.504 35.4875 13.536 35.3915 13.6C35.2955 13.6587 35.2128 13.744 35.1435 13.856C35.0741 13.9627 35.0208 14.0933 34.9835 14.248C34.9461 14.3973 34.9275 14.5627 34.9275 14.744V17.048H34.2475V14.048C34.2475 13.888 34.2448 13.7173 34.2395 13.536C34.2341 13.3493 34.2261 13.1813 34.2155 13.032H34.8635C34.8795 13.1653 34.8901 13.2987 34.8955 13.432C34.9061 13.5653 34.9115 13.664 34.9115 13.728H34.9275C35.0021 13.4933 35.1248 13.296 35.2955 13.136C35.4715 12.976 35.6848 12.896 35.9355 12.896C36.1488 12.896 36.3221 12.9413 36.4555 13.032C36.5941 13.1227 36.6981 13.2427 36.7675 13.392C36.8421 13.5413 36.8928 13.712 36.9195 13.904C36.9461 14.096 36.9595 14.2907 36.9595 14.488V17.048H36.2715ZM40.1386 17.048V14.488C40.1386 14.376 40.1333 14.2613 40.1226 14.144C40.112 14.0267 40.0853 13.92 40.0426 13.824C40.0053 13.728 39.9493 13.6507 39.8746 13.592C39.8 13.5333 39.6986 13.504 39.5706 13.504C39.4586 13.504 39.3546 13.536 39.2586 13.6C39.1626 13.6587 39.08 13.744 39.0106 13.856C38.9413 13.9627 38.888 14.0933 38.8506 14.248C38.8133 14.3973 38.7946 14.5627 38.7946 14.744V17.048H38.1146V14.048C38.1146 13.888 38.112 13.7173 38.1066 13.536C38.1013 13.3493 38.0933 13.1813 38.0826 13.032H38.7306C38.7466 13.1653 38.7573 13.2987 38.7626 13.432C38.7733 13.5653 38.7786 13.664 38.7786 13.728H38.7946C38.8693 13.4933 38.992 13.296 39.1626 13.136C39.3386 12.976 39.552 12.896 39.8026 12.896C40.016 12.896 40.1893 12.9413 40.3226 13.032C40.4613 13.1227 40.5653 13.2427 40.6346 13.392C40.7093 13.5413 40.76 13.712 40.7866 13.904C40.8133 14.096 40.8266 14.2907 40.8266 14.488V17.048H40.1386ZM42.4298 15.216C42.4298 15.408 42.4458 15.5867 42.4778 15.752C42.5152 15.9173 42.5658 16.0613 42.6298 16.184C42.6992 16.3067 42.7845 16.4027 42.8858 16.472C42.9872 16.5413 43.1045 16.576 43.2378 16.576C43.4192 16.576 43.5632 16.52 43.6698 16.408C43.7765 16.296 43.8618 16.1627 43.9258 16.008L44.4378 16.304C44.3312 16.56 44.1765 16.7707 43.9738 16.936C43.7765 17.1013 43.5232 17.184 43.2138 17.184C42.7552 17.184 42.3952 16.9973 42.1338 16.624C41.8725 16.2453 41.7418 15.72 41.7418 15.048C41.7418 14.728 41.7765 14.4373 41.8458 14.176C41.9152 13.9093 42.0138 13.6827 42.1418 13.496C42.2698 13.304 42.4245 13.1573 42.6058 13.056C42.7872 12.9493 42.9872 12.896 43.2058 12.896C43.4512 12.896 43.6592 12.9493 43.8298 13.056C44.0005 13.1573 44.1392 13.2987 44.2458 13.48C44.3578 13.656 44.4378 13.8667 44.4858 14.112C44.5338 14.352 44.5578 14.6107 44.5578 14.888V15.216H42.4298ZM43.8698 14.664C43.8698 14.312 43.8138 14.0293 43.7018 13.816C43.5952 13.5973 43.4245 13.488 43.1898 13.488C43.0512 13.488 42.9338 13.5307 42.8378 13.616C42.7472 13.696 42.6725 13.7973 42.6138 13.92C42.5552 14.0373 42.5125 14.1653 42.4858 14.304C42.4592 14.4373 42.4458 14.5573 42.4458 14.664H43.8698ZM45.4815 17.048V11H46.1695V17.048H45.4815ZM50.5923 17.048C50.5709 16.9253 50.5549 16.8027 50.5443 16.68C50.5336 16.5573 50.5283 16.4587 50.5283 16.384H50.5123C50.4536 16.624 50.3469 16.8133 50.1923 16.952C50.0429 17.0853 49.8349 17.152 49.5683 17.152C49.4563 17.152 49.3416 17.1307 49.2243 17.088C49.1069 17.0453 49.0003 16.976 48.9043 16.88C48.8136 16.784 48.7363 16.6613 48.6723 16.512C48.6136 16.3627 48.5843 16.1787 48.5843 15.96C48.5843 15.672 48.6349 15.4373 48.7363 15.256C48.8429 15.0693 48.9736 14.9253 49.1283 14.824C49.2883 14.7173 49.4643 14.6453 49.6563 14.608C49.8483 14.5707 50.0323 14.552 50.2083 14.552H50.4723V14.376C50.4723 14.0613 50.4109 13.8347 50.2883 13.696C50.1709 13.552 50.0109 13.48 49.8083 13.48C49.6589 13.48 49.5203 13.5173 49.3923 13.592C49.2643 13.6667 49.1549 13.7653 49.0643 13.888L48.7203 13.464C48.8536 13.2827 49.0269 13.144 49.2403 13.048C49.4536 12.9467 49.6643 12.896 49.8723 12.896C50.1016 12.896 50.2936 12.9333 50.4483 13.008C50.6083 13.0827 50.7363 13.192 50.8323 13.336C50.9283 13.48 50.9949 13.6587 51.0323 13.872C51.0749 14.08 51.0963 14.3173 51.0963 14.584V16.208C51.0963 16.3467 51.1016 16.4987 51.1123 16.664C51.1229 16.824 51.1363 16.952 51.1523 17.048H50.5923ZM50.4883 15.072H50.1923C50.0696 15.072 49.9496 15.0827 49.8323 15.104C49.7203 15.1253 49.6189 15.168 49.5283 15.232C49.4376 15.2907 49.3629 15.3733 49.3043 15.48C49.2509 15.5867 49.2243 15.7227 49.2243 15.888C49.2243 16.1333 49.2776 16.3147 49.3843 16.432C49.4909 16.544 49.6136 16.6 49.7523 16.6C49.8909 16.6 50.0056 16.56 50.0963 16.48C50.1923 16.3947 50.2696 16.288 50.3283 16.16C50.3869 16.032 50.4269 15.8933 50.4483 15.744C50.4749 15.5893 50.4883 15.4427 50.4883 15.304V15.072ZM54.2246 17.048V14.488C54.2246 14.376 54.2193 14.2613 54.2086 14.144C54.1979 14.0267 54.1713 13.92 54.1286 13.824C54.0913 13.728 54.0353 13.6507 53.9606 13.592C53.8859 13.5333 53.7846 13.504 53.6566 13.504C53.5446 13.504 53.4406 13.536 53.3446 13.6C53.2486 13.6587 53.1659 13.744 53.0966 13.856C53.0273 13.9627 52.9739 14.0933 52.9366 14.248C52.8993 14.3973 52.8806 14.5627 52.8806 14.744V17.048H52.2006V14.048C52.2006 13.888 52.1979 13.7173 52.1926 13.536C52.1873 13.3493 52.1793 13.1813 52.1686 13.032H52.8166C52.8326 13.1653 52.8433 13.2987 52.8486 13.432C52.8593 13.5653 52.8646 13.664 52.8646 13.728H52.8806C52.9553 13.4933 53.0779 13.296 53.2486 13.136C53.4246 12.976 53.6379 12.896 53.8886 12.896C54.1019 12.896 54.2753 12.9413 54.4086 13.032C54.5473 13.1227 54.6513 13.2427 54.7206 13.392C54.7953 13.5413 54.8459 13.712 54.8726 13.904C54.8993 14.096 54.9126 14.2907 54.9126 14.488V17.048H54.2246ZM57.4838 17.04C57.4251 17.072 57.3478 17.0987 57.2518 17.12C57.1558 17.1413 57.0598 17.152 56.9638 17.152C56.6544 17.152 56.4331 17.0533 56.2998 16.856C56.1718 16.6587 56.1078 16.384 56.1078 16.032V13.584H55.5958V13.032H56.0998V11.96H56.7638V13.032H57.4758V13.584H56.7638V15.896C56.7638 16.1307 56.7984 16.3013 56.8678 16.408C56.9371 16.5093 57.0411 16.56 57.1798 16.56C57.2278 16.56 57.2784 16.5547 57.3318 16.544C57.3851 16.528 57.4304 16.512 57.4678 16.496L57.4838 17.04ZM58.9291 11.84C58.9291 11.9733 58.8865 12.0827 58.8011 12.168C58.7211 12.2533 58.6225 12.296 58.5051 12.296C58.3825 12.296 58.2811 12.2533 58.2011 12.168C58.1211 12.0827 58.0811 11.9733 58.0811 11.84C58.0811 11.712 58.1211 11.6053 58.2011 11.52C58.2811 11.4293 58.3825 11.384 58.5051 11.384C58.6278 11.384 58.7291 11.4293 58.8091 11.52C58.8891 11.6053 58.9291 11.712 58.9291 11.84ZM58.1611 17.048V13.032H58.8411V17.048H58.1611ZM60.0205 11H60.7005V13.608H60.7165C60.7752 13.4 60.8845 13.2293 61.0445 13.096C61.2045 12.9627 61.4019 12.896 61.6365 12.896C61.8445 12.896 62.0285 12.9493 62.1885 13.056C62.3485 13.1573 62.4819 13.304 62.5885 13.496C62.7005 13.6827 62.7832 13.9067 62.8365 14.168C62.8899 14.424 62.9165 14.7067 62.9165 15.016C62.9165 15.3307 62.8872 15.6213 62.8285 15.888C62.7752 16.1493 62.6925 16.376 62.5805 16.568C62.4739 16.76 62.3405 16.912 62.1805 17.024C62.0205 17.1307 61.8392 17.184 61.6365 17.184C61.3592 17.184 61.1485 17.112 61.0045 16.968C60.8659 16.8187 60.7645 16.6347 60.7005 16.416H60.6845V17.048H60.0205V11ZM60.6845 15.04C60.6845 15.2587 60.7005 15.4613 60.7325 15.648C60.7645 15.8347 60.8125 15.9973 60.8765 16.136C60.9405 16.2747 61.0205 16.384 61.1165 16.464C61.2179 16.544 61.3325 16.584 61.4605 16.584C61.5939 16.584 61.7059 16.544 61.7965 16.464C61.8925 16.384 61.9699 16.2747 62.0285 16.136C62.0925 15.9973 62.1379 15.8347 62.1645 15.648C62.1965 15.4613 62.2125 15.2587 62.2125 15.04C62.2125 14.8213 62.1965 14.6187 62.1645 14.432C62.1379 14.24 62.0925 14.0747 62.0285 13.936C61.9699 13.7973 61.8925 13.688 61.7965 13.608C61.7059 13.528 61.5939 13.488 61.4605 13.488C61.3325 13.488 61.2205 13.528 61.1245 13.608C61.0285 13.688 60.9459 13.7973 60.8765 13.936C60.8125 14.0747 60.7645 14.24 60.7325 14.432C60.7005 14.6187 60.6845 14.8213 60.6845 15.04ZM66.5603 15.048C66.5603 15.368 66.5256 15.6587 66.4563 15.92C66.3923 16.1813 66.2963 16.4053 66.1683 16.592C66.0456 16.7787 65.8936 16.9253 65.7123 17.032C65.5309 17.1333 65.3256 17.184 65.0963 17.184C64.8723 17.184 64.6696 17.1333 64.4883 17.032C64.3069 16.9253 64.1523 16.7787 64.0243 16.592C63.9016 16.4053 63.8056 16.1813 63.7363 15.92C63.6723 15.6587 63.6403 15.368 63.6403 15.048C63.6403 14.728 63.6723 14.4347 63.7363 14.168C63.8056 13.9013 63.9016 13.6747 64.0243 13.488C64.1469 13.3013 64.2989 13.1573 64.4803 13.056C64.6616 12.9493 64.8669 12.896 65.0963 12.896C65.3256 12.896 65.5309 12.9493 65.7123 13.056C65.8936 13.1573 66.0456 13.3013 66.1683 13.488C66.2963 13.6747 66.3923 13.9013 66.4563 14.168C66.5256 14.4347 66.5603 14.728 66.5603 15.048ZM65.8563 15.04C65.8563 14.8213 65.8403 14.6187 65.8083 14.432C65.7816 14.24 65.7363 14.0747 65.6723 13.936C65.6083 13.7973 65.5283 13.688 65.4323 13.608C65.3363 13.528 65.2243 13.488 65.0963 13.488C64.9683 13.488 64.8563 13.528 64.7603 13.608C64.6643 13.688 64.5843 13.7973 64.5203 13.936C64.4616 14.0747 64.4163 14.24 64.3843 14.432C64.3576 14.6187 64.3443 14.8213 64.3443 15.04C64.3443 15.2587 64.3576 15.4613 64.3843 15.648C64.4163 15.8347 64.4616 15.9973 64.5203 16.136C64.5843 16.2747 64.6643 16.384 64.7603 16.464C64.8563 16.544 64.9683 16.584 65.0963 16.584C65.2296 16.584 65.3443 16.544 65.4403 16.464C65.5363 16.384 65.6136 16.2747 65.6723 16.136C65.7363 15.9973 65.7816 15.8347 65.8083 15.648C65.8403 15.4613 65.8563 15.2587 65.8563 15.04ZM69.5129 17.048V16.416H69.4969C69.4329 16.6347 69.3289 16.8187 69.1849 16.968C69.0462 17.112 68.8382 17.184 68.5609 17.184C68.3582 17.184 68.1769 17.1307 68.0169 17.024C67.8569 16.912 67.7209 16.76 67.6089 16.568C67.5022 16.376 67.4196 16.1493 67.3609 15.888C67.3076 15.6213 67.2809 15.3307 67.2809 15.016C67.2809 14.7067 67.3076 14.424 67.3609 14.168C67.4142 13.9067 67.4942 13.6827 67.6009 13.496C67.7129 13.304 67.8489 13.1573 68.0089 13.056C68.1689 12.9493 68.3529 12.896 68.5609 12.896C68.7956 12.896 68.9929 12.9627 69.1529 13.096C69.3129 13.2293 69.4222 13.4 69.4809 13.608H69.4969V11H70.1769V17.048H69.5129ZM69.5129 15.04C69.5129 14.8213 69.4969 14.6187 69.4649 14.432C69.4329 14.24 69.3822 14.0747 69.3129 13.936C69.2489 13.7973 69.1689 13.688 69.0729 13.608C68.9769 13.528 68.8649 13.488 68.7369 13.488C68.6036 13.488 68.4889 13.528 68.3929 13.608C68.3022 13.688 68.2249 13.7973 68.1609 13.936C68.1022 14.0747 68.0569 14.24 68.0249 14.432C67.9982 14.6187 67.9849 14.8213 67.9849 15.04C67.9849 15.2587 67.9982 15.4613 68.0249 15.648C68.0569 15.8347 68.1022 15.9973 68.1609 16.136C68.2249 16.2747 68.3022 16.384 68.3929 16.464C68.4889 16.544 68.6036 16.584 68.7369 16.584C68.8649 16.584 68.9769 16.544 69.0729 16.464C69.1742 16.384 69.2569 16.2747 69.3209 16.136C69.3849 15.9973 69.4329 15.8347 69.4649 15.648C69.4969 15.4613 69.5129 15.2587 69.5129 15.04ZM72.5806 17.776C72.5326 17.9573 72.4766 18.12 72.4126 18.264C72.354 18.4133 72.2793 18.5387 72.1886 18.64C72.1033 18.7467 71.9993 18.8267 71.8766 18.88C71.754 18.9387 71.61 18.968 71.4446 18.968C71.354 18.968 71.266 18.96 71.1806 18.944C71.0953 18.9333 71.026 18.92 70.9726 18.904L71.0606 18.288C71.162 18.3253 71.2686 18.344 71.3806 18.344C71.5353 18.344 71.65 18.296 71.7246 18.2C71.8046 18.104 71.866 17.9707 71.9086 17.8L72.0606 17.168L70.8766 13.032H71.5966L72.3886 16.248H72.4046L73.1246 13.032H73.8206L72.5806 17.776ZM75.0155 16.624C75.0155 16.7627 74.9701 16.8773 74.8795 16.968C74.7941 17.0587 74.6875 17.104 74.5595 17.104C74.4315 17.104 74.3248 17.0587 74.2395 16.968C74.1541 16.8773 74.1115 16.7627 74.1115 16.624C74.1115 16.4907 74.1541 16.376 74.2395 16.28C74.3248 16.184 74.4315 16.136 74.5595 16.136C74.6875 16.136 74.7941 16.184 74.8795 16.28C74.9701 16.376 75.0155 16.4907 75.0155 16.624Z" fill="#44264A"/>
</svg>
