<svg xmlns="http://www.w3.org/2000/svg" width="282.715" height="7.805" viewBox="0 0 282.715 7.805"><path d="M-138.271.129a2.823,2.823,0,0,1-2.072-.857A2.823,2.823,0,0,1-141.2-2.8a2.823,2.823,0,0,1,.857-2.072,2.823,2.823,0,0,1,2.072-.857,2.819,2.819,0,0,1,2.068.857,2.823,2.823,0,0,1,.857,2.072A2.823,2.823,0,0,1-136.2-.729,2.819,2.819,0,0,1-138.271.129Zm0-5.516a2.491,2.491,0,0,0-1.828.758,2.491,2.491,0,0,0-.758,1.828A2.485,2.485,0,0,0-140.1-.975a2.5,2.5,0,0,0,1.828.756,2.488,2.488,0,0,0,1.826-.756,2.488,2.488,0,0,0,.756-1.826,2.5,2.5,0,0,0-.756-1.828A2.485,2.485,0,0,0-138.271-5.387Zm1.059,4.1a1.724,1.724,0,0,1-.969.27,1.744,1.744,0,0,1-1.258-.488,1.626,1.626,0,0,1-.508-1.223,1.814,1.814,0,0,1,.52-1.359,1.851,1.851,0,0,1,1.352-.508,1.724,1.724,0,0,1,.848.207V-3.8a1.348,1.348,0,0,0-.895-.281,1.241,1.241,0,0,0-.908.352,1.266,1.266,0,0,0-.357.945,1.218,1.218,0,0,0,.365.926,1.291,1.291,0,0,0,.928.348,1.338,1.338,0,0,0,.883-.3Zm7.707-2.848a1.158,1.158,0,0,0-.08-.449A.89.89,0,0,0-129.8-4.9a.9.9,0,0,0-.326-.189,1.277,1.277,0,0,0-.406-.062,1.344,1.344,0,0,0-.367.051,1.785,1.785,0,0,0-.35.141,2.151,2.151,0,0,0-.328.215,2.37,2.37,0,0,0-.295.277v-.687a1.915,1.915,0,0,1,.6-.4,2.125,2.125,0,0,1,.814-.139,1.966,1.966,0,0,1,.637.1,1.46,1.46,0,0,1,.508.291,1.345,1.345,0,0,1,.338.473,1.594,1.594,0,0,1,.123.645,2.21,2.21,0,0,1-.076.6,1.861,1.861,0,0,1-.23.508,2.45,2.45,0,0,1-.389.457,5.506,5.506,0,0,1-.551.445q-.395.281-.65.48a2.875,2.875,0,0,0-.406.373,1.082,1.082,0,0,0-.211.348,1.215,1.215,0,0,0-.061.4h2.789V0H-132.1V-.277a2.311,2.311,0,0,1,.078-.633,1.643,1.643,0,0,1,.258-.52,2.883,2.883,0,0,1,.471-.492q.291-.246.713-.555a4.507,4.507,0,0,0,.51-.418,2.173,2.173,0,0,0,.33-.4,1.431,1.431,0,0,0,.178-.4A1.743,1.743,0,0,0-129.506-4.133Zm5.281,1.309a5.5,5.5,0,0,1-.127,1.246,2.9,2.9,0,0,1-.367.916,1.653,1.653,0,0,1-.59.566A1.615,1.615,0,0,1-126.1.1a1.508,1.508,0,0,1-.752-.186,1.576,1.576,0,0,1-.557-.541,2.742,2.742,0,0,1-.344-.873,5.4,5.4,0,0,1-.117-1.186,6.111,6.111,0,0,1,.123-1.3,2.966,2.966,0,0,1,.361-.943A1.608,1.608,0,0,1-126.8-5.5a1.662,1.662,0,0,1,.811-.193Q-124.225-5.7-124.225-2.824Zm-.656.063q0-2.391-1.137-2.391-1.2,0-1.2,2.434,0,2.27,1.176,2.27Q-124.881-.449-124.881-2.762Zm4-1.371a1.158,1.158,0,0,0-.08-.449.89.89,0,0,0-.219-.318.9.9,0,0,0-.326-.189,1.277,1.277,0,0,0-.406-.062,1.344,1.344,0,0,0-.367.051,1.785,1.785,0,0,0-.35.141,2.151,2.151,0,0,0-.328.215,2.37,2.37,0,0,0-.295.277v-.687a1.915,1.915,0,0,1,.6-.4,2.125,2.125,0,0,1,.814-.139,1.966,1.966,0,0,1,.637.1,1.46,1.46,0,0,1,.508.291,1.345,1.345,0,0,1,.338.473,1.594,1.594,0,0,1,.123.645,2.21,2.21,0,0,1-.076.6,1.86,1.86,0,0,1-.23.508,2.45,2.45,0,0,1-.389.457,5.506,5.506,0,0,1-.551.445q-.395.281-.65.48a2.875,2.875,0,0,0-.406.373,1.083,1.083,0,0,0-.211.348,1.215,1.215,0,0,0-.061.4h2.789V0h-3.457V-.277a2.311,2.311,0,0,1,.078-.633,1.643,1.643,0,0,1,.258-.52,2.883,2.883,0,0,1,.471-.492q.291-.246.713-.555a4.507,4.507,0,0,0,.51-.418,2.173,2.173,0,0,0,.33-.4,1.431,1.431,0,0,0,.178-.4A1.743,1.743,0,0,0-120.881-4.133Zm5.289,2.355a2.075,2.075,0,0,1-.133.754,1.812,1.812,0,0,1-.367.594,1.64,1.64,0,0,1-.559.389,1.769,1.769,0,0,1-.7.139,1.6,1.6,0,0,1-.756-.176,1.6,1.6,0,0,1-.566-.506,2.426,2.426,0,0,1-.354-.807,4.37,4.37,0,0,1-.121-1.074,5.048,5.048,0,0,1,.162-1.326,3.222,3.222,0,0,1,.461-1.02,2.125,2.125,0,0,1,.721-.654,1.931,1.931,0,0,1,.941-.23,2.268,2.268,0,0,1,.93.16v.605a1.974,1.974,0,0,0-.914-.223,1.362,1.362,0,0,0-.676.168,1.552,1.552,0,0,0-.516.475,2.315,2.315,0,0,0-.33.74,3.756,3.756,0,0,0-.115.965h.016a1.345,1.345,0,0,1,1.277-.7,1.681,1.681,0,0,1,.662.125,1.429,1.429,0,0,1,.5.354,1.592,1.592,0,0,1,.322.545A2.074,2.074,0,0,1-115.592-1.777Zm-.656.082a1.743,1.743,0,0,0-.074-.527,1.144,1.144,0,0,0-.213-.4.918.918,0,0,0-.342-.252,1.15,1.15,0,0,0-.461-.088,1.079,1.079,0,0,0-.441.09,1.1,1.1,0,0,0-.352.244,1.131,1.131,0,0,0-.232.359,1.138,1.138,0,0,0-.084.436,1.737,1.737,0,0,0,.082.541,1.4,1.4,0,0,0,.23.439,1.1,1.1,0,0,0,.354.295.966.966,0,0,0,.455.107,1.042,1.042,0,0,0,.441-.092.985.985,0,0,0,.34-.256,1.184,1.184,0,0,0,.219-.393A1.556,1.556,0,0,0-116.248-1.7Zm7.715,1.461a3.285,3.285,0,0,1-1.547.328,2.5,2.5,0,0,1-1.914-.77,2.84,2.84,0,0,1-.719-2.02,2.976,2.976,0,0,1,.809-2.172,2.744,2.744,0,0,1,2.051-.828,3.288,3.288,0,0,1,1.32.23v.7a2.677,2.677,0,0,0-1.328-.336,2.038,2.038,0,0,0-1.564.645,2.428,2.428,0,0,0-.6,1.723,2.31,2.31,0,0,0,.561,1.631,1.907,1.907,0,0,0,1.471.607,2.759,2.759,0,0,0,1.461-.375Zm3.918.234h-.641V-.625h-.016a1.341,1.341,0,0,1-1.23.719,1.315,1.315,0,0,1-.936-.316,1.1,1.1,0,0,1-.338-.84q0-1.121,1.32-1.3l1.2-.168q0-1.02-.824-1.02a1.969,1.969,0,0,0-1.3.492v-.656a2.479,2.479,0,0,1,1.359-.375q1.41,0,1.41,1.492Zm-.641-2.023-.965.133a1.566,1.566,0,0,0-.672.221.637.637,0,0,0-.227.561.611.611,0,0,0,.209.479.808.808,0,0,0,.557.186,1.028,1.028,0,0,0,.787-.334,1.193,1.193,0,0,0,.311-.846Zm3.7,1.984a1.235,1.235,0,0,1-.6.125q-1.051,0-1.051-1.172V-3.453h-.687V-4h.688v-.977l.641-.207V-4h1.008v.547h-1.008V-1.2a.934.934,0,0,0,.137.574.546.546,0,0,0,.453.172.674.674,0,0,0,.418-.133ZM-97.834,0h-.641V-.625h-.016a1.341,1.341,0,0,1-1.23.719,1.315,1.315,0,0,1-.936-.316,1.1,1.1,0,0,1-.338-.84q0-1.121,1.32-1.3l1.2-.168q0-1.02-.824-1.02a1.969,1.969,0,0,0-1.3.492v-.656a2.479,2.479,0,0,1,1.359-.375q1.41,0,1.41,1.492Zm-.641-2.023-.965.133a1.566,1.566,0,0,0-.672.221.637.637,0,0,0-.227.561.611.611,0,0,0,.209.479.808.808,0,0,0,.557.186,1.028,1.028,0,0,0,.787-.334,1.193,1.193,0,0,0,.311-.846ZM-95.986,0h-.641V-5.922h.641Zm4.48-4L-93.346.641q-.492,1.242-1.383,1.242a1.466,1.466,0,0,1-.418-.051V1.258a1.187,1.187,0,0,0,.379.07A.785.785,0,0,0-94.041.75l.32-.758L-95.283-4h.711L-93.49-.922q.02.059.082.3h.023q.02-.094.078-.3L-92.17-4Zm.445,3.855V-.832a1.9,1.9,0,0,0,1.152.387q.844,0,.844-.562a.488.488,0,0,0-.072-.271.72.72,0,0,0-.2-.2,1.5,1.5,0,0,0-.289-.154q-.166-.068-.357-.143a4.6,4.6,0,0,1-.467-.213,1.41,1.41,0,0,1-.336-.242.9.9,0,0,1-.2-.307,1.085,1.085,0,0,1-.068-.4.956.956,0,0,1,.129-.5A1.143,1.143,0,0,1-90.58-3.8a1.6,1.6,0,0,1,.49-.221,2.175,2.175,0,0,1,.568-.074,2.3,2.3,0,0,1,.93.18v.648a1.812,1.812,0,0,0-1.016-.289,1.187,1.187,0,0,0-.324.041.794.794,0,0,0-.248.115.532.532,0,0,0-.16.178.468.468,0,0,0-.057.229.548.548,0,0,0,.057.262.576.576,0,0,0,.166.188,1.269,1.269,0,0,0,.266.148q.156.066.355.145a4.947,4.947,0,0,1,.477.209,1.635,1.635,0,0,1,.359.242.946.946,0,0,1,.229.311,1,1,0,0,1,.08.418.985.985,0,0,1-.131.516,1.122,1.122,0,0,1-.35.363,1.6,1.6,0,0,1-.5.215,2.488,2.488,0,0,1-.6.07A2.269,2.269,0,0,1-91.061-.145Zm5.492.105a1.235,1.235,0,0,1-.6.125q-1.051,0-1.051-1.172V-3.453H-87.9V-4h.688v-.977l.641-.207V-4h1.008v.547h-1.008V-1.2a.934.934,0,0,0,.137.574.546.546,0,0,0,.453.172.674.674,0,0,0,.418-.133Zm3.789-2.078V0h-.656V-5.6H-80.9a2.031,2.031,0,0,1,1.393.438A1.562,1.562,0,0,1-79.01-3.93a1.7,1.7,0,0,1-.549,1.3,2.1,2.1,0,0,1-1.482.508Zm0-2.891v2.3h.688a1.537,1.537,0,0,0,1.037-.311A1.1,1.1,0,0,0-79.7-3.9q0-1.109-1.312-1.109ZM-74.721,0h-.641V-2.3q0-1.25-.93-1.25a1.014,1.014,0,0,0-.789.361,1.347,1.347,0,0,0-.32.928V0h-.641V-5.922h.641v2.586h.016a1.455,1.455,0,0,1,1.313-.758q1.352,0,1.352,1.629Zm4.07,0h-.641V-.625h-.016a1.341,1.341,0,0,1-1.23.719,1.315,1.315,0,0,1-.936-.316,1.1,1.1,0,0,1-.338-.84q0-1.121,1.32-1.3l1.2-.168q0-1.02-.824-1.02a1.969,1.969,0,0,0-1.3.492v-.656a2.479,2.479,0,0,1,1.359-.375q1.41,0,1.41,1.492Zm-.641-2.023-.965.133a1.566,1.566,0,0,0-.672.221.637.637,0,0,0-.227.561.611.611,0,0,0,.209.479.808.808,0,0,0,.557.186A1.028,1.028,0,0,0-71.6-.779a1.193,1.193,0,0,0,.311-.846Zm3.934-1.328a.783.783,0,0,0-.484-.129.818.818,0,0,0-.686.387A1.788,1.788,0,0,0-68.8-2.039V0h-.641V-4h.641v.824h.016a1.4,1.4,0,0,1,.418-.658.953.953,0,0,1,.629-.236,1.046,1.046,0,0,1,.383.055ZM-60.982,0h-.641V-2.3a1.733,1.733,0,0,0-.205-.961.778.778,0,0,0-.689-.3.854.854,0,0,0-.7.375,1.435,1.435,0,0,0-.287.9V0h-.641V-2.375q0-1.18-.91-1.18a.843.843,0,0,0-.7.354,1.461,1.461,0,0,0-.273.92V0h-.641V-4h.641v.633h.016a1.359,1.359,0,0,1,1.242-.727,1.158,1.158,0,0,1,.715.229,1.15,1.15,0,0,1,.418.6A1.427,1.427,0,0,1-62.3-4.094q1.32,0,1.32,1.629Zm4.074,0h-.641V-.625h-.016a1.341,1.341,0,0,1-1.23.719,1.315,1.315,0,0,1-.936-.316,1.1,1.1,0,0,1-.338-.84q0-1.121,1.32-1.3l1.2-.168q0-1.02-.824-1.02a1.969,1.969,0,0,0-1.3.492v-.656a2.479,2.479,0,0,1,1.359-.375q1.41,0,1.41,1.492Zm-.641-2.023-.965.133a1.567,1.567,0,0,0-.672.221.637.637,0,0,0-.227.561.611.611,0,0,0,.209.479.808.808,0,0,0,.557.186,1.028,1.028,0,0,0,.787-.334,1.193,1.193,0,0,0,.311-.846Zm4.574,1.84a2.082,2.082,0,0,1-1.094.277,1.811,1.811,0,0,1-1.381-.557,2.017,2.017,0,0,1-.525-1.443,2.218,2.218,0,0,1,.566-1.588,1.981,1.981,0,0,1,1.512-.6,2.1,2.1,0,0,1,.93.2v.656a1.629,1.629,0,0,0-.953-.312,1.288,1.288,0,0,0-1.006.439,1.668,1.668,0,0,0-.393,1.154,1.588,1.588,0,0,0,.369,1.109,1.272,1.272,0,0,0,.99.406,1.606,1.606,0,0,0,.984-.348Zm4.184-1.656h-2.824a1.5,1.5,0,0,0,.359,1.031,1.239,1.239,0,0,0,.945.363,1.965,1.965,0,0,0,1.242-.445v.6a2.322,2.322,0,0,1-1.395.383,1.691,1.691,0,0,1-1.332-.545,2.23,2.23,0,0,1-.484-1.533,2.187,2.187,0,0,1,.529-1.521,1.7,1.7,0,0,1,1.314-.588,1.5,1.5,0,0,1,1.215.508,2.117,2.117,0,0,1,.43,1.41Zm-.656-.543a1.3,1.3,0,0,0-.268-.863.912.912,0,0,0-.732-.309,1.035,1.035,0,0,0-.77.324,1.471,1.471,0,0,0-.391.848ZM-44.588,0h-.641V-.633h-.016a1.316,1.316,0,0,1-1.234.727q-1.43,0-1.43-1.7V-4h.637v2.289q0,1.266.969,1.266a.98.98,0,0,0,.771-.346,1.323,1.323,0,0,0,.3-.9V-4h.641Zm3.148-.039a1.235,1.235,0,0,1-.6.125q-1.051,0-1.051-1.172V-3.453h-.687V-4h.688v-.977l.641-.207V-4h1.008v.547h-1.008V-1.2a.934.934,0,0,0,.137.574.546.546,0,0,0,.453.172.674.674,0,0,0,.418-.133Zm1.184-4.977a.406.406,0,0,1-.293-.117.4.4,0,0,1-.121-.3.4.4,0,0,1,.121-.3.4.4,0,0,1,.293-.119.414.414,0,0,1,.3.119.4.4,0,0,1,.123.3.4.4,0,0,1-.123.293A.41.41,0,0,1-40.256-5.016ZM-39.943,0h-.641V-4h.641Zm4.023-.184a2.082,2.082,0,0,1-1.094.277,1.811,1.811,0,0,1-1.381-.557,2.017,2.017,0,0,1-.525-1.443,2.218,2.218,0,0,1,.566-1.588,1.981,1.981,0,0,1,1.512-.6,2.1,2.1,0,0,1,.93.2v.656a1.629,1.629,0,0,0-.953-.312,1.288,1.288,0,0,0-1.006.439,1.668,1.668,0,0,0-.393,1.154,1.588,1.588,0,0,0,.369,1.109,1.272,1.272,0,0,0,.99.406,1.606,1.606,0,0,0,.984-.348ZM-32.088,0h-.641V-.625h-.016a1.341,1.341,0,0,1-1.23.719,1.315,1.315,0,0,1-.936-.316,1.1,1.1,0,0,1-.338-.84q0-1.121,1.32-1.3l1.2-.168q0-1.02-.824-1.02a1.969,1.969,0,0,0-1.3.492v-.656A2.479,2.479,0,0,1-33.5-4.094q1.41,0,1.41,1.492Zm-.641-2.023-.965.133a1.567,1.567,0,0,0-.672.221.637.637,0,0,0-.227.561.611.611,0,0,0,.209.479.808.808,0,0,0,.557.186,1.028,1.028,0,0,0,.787-.334,1.193,1.193,0,0,0,.311-.846ZM-30.24,0h-.641V-5.922h.641Zm1.055-.145V-.832a1.9,1.9,0,0,0,1.152.387q.844,0,.844-.562a.488.488,0,0,0-.072-.271.72.72,0,0,0-.2-.2,1.5,1.5,0,0,0-.289-.154q-.166-.068-.357-.143a4.6,4.6,0,0,1-.467-.213,1.41,1.41,0,0,1-.336-.242.9.9,0,0,1-.2-.307,1.085,1.085,0,0,1-.068-.4.956.956,0,0,1,.129-.5,1.143,1.143,0,0,1,.344-.363,1.6,1.6,0,0,1,.49-.221,2.175,2.175,0,0,1,.568-.074,2.3,2.3,0,0,1,.93.18v.648a1.812,1.812,0,0,0-1.016-.289,1.187,1.187,0,0,0-.324.041A.794.794,0,0,0-28.3-3.4a.532.532,0,0,0-.16.178.468.468,0,0,0-.057.229.548.548,0,0,0,.057.262.576.576,0,0,0,.166.188,1.269,1.269,0,0,0,.266.148q.156.066.355.145a4.947,4.947,0,0,1,.477.209,1.635,1.635,0,0,1,.359.242.946.946,0,0,1,.229.311,1,1,0,0,1,.08.418.985.985,0,0,1-.131.516,1.122,1.122,0,0,1-.35.363,1.6,1.6,0,0,1-.5.215,2.488,2.488,0,0,1-.6.07A2.269,2.269,0,0,1-29.186-.145Zm4.223-.746-.625,1.922h-.457l.457-1.922ZM-20.881,0h-.656V-5.6h.656Zm4.707,0h-.641V-2.281q0-1.273-.93-1.273a1.008,1.008,0,0,0-.795.361,1.339,1.339,0,0,0-.314.912V0h-.641V-4h.641v.664h.016a1.444,1.444,0,0,1,1.313-.758,1.224,1.224,0,0,1,1,.424,1.888,1.888,0,0,1,.348,1.225Zm3.934-.184a2.082,2.082,0,0,1-1.094.277,1.811,1.811,0,0,1-1.381-.557,2.017,2.017,0,0,1-.525-1.443,2.218,2.218,0,0,1,.566-1.588,1.981,1.981,0,0,1,1.512-.6,2.1,2.1,0,0,1,.93.2v.656a1.629,1.629,0,0,0-.953-.312,1.288,1.288,0,0,0-1.006.439,1.668,1.668,0,0,0-.393,1.154,1.588,1.588,0,0,0,.369,1.109,1.272,1.272,0,0,0,.99.406,1.606,1.606,0,0,0,.984-.348Zm1.191.27a.415.415,0,0,1-.307-.129.424.424,0,0,1-.127-.309.431.431,0,0,1,.127-.311.412.412,0,0,1,.307-.131.422.422,0,0,1,.313.131.427.427,0,0,1,.129.311.421.421,0,0,1-.129.309A.426.426,0,0,1-11.049.086ZM-2.924,0H-3.65l-.594-1.57H-6.619L-7.178,0h-.73L-5.76-5.6h.68ZM-4.459-2.16l-.879-2.387a2.285,2.285,0,0,1-.086-.375h-.016a2.092,2.092,0,0,1-.09.375L-6.4-2.16ZM-1.545,0h-.641V-5.922h.641ZM.393,0H-.248V-5.922H.393Zm7.59,0H7.2L6.264-1.57a3.42,3.42,0,0,0-.25-.373A1.425,1.425,0,0,0,5.766-2.2a.859.859,0,0,0-.273-.143,1.124,1.124,0,0,0-.33-.045H4.623V0H3.967V-5.6H5.639a2.383,2.383,0,0,1,.678.092,1.516,1.516,0,0,1,.539.279,1.3,1.3,0,0,1,.357.467,1.548,1.548,0,0,1,.129.654,1.576,1.576,0,0,1-.088.537A1.4,1.4,0,0,1,7-3.137a1.515,1.515,0,0,1-.391.326A1.994,1.994,0,0,1,6.1-2.6v.016a1.181,1.181,0,0,1,.244.143,1.344,1.344,0,0,1,.2.189,2.509,2.509,0,0,1,.186.248q.092.139.205.322ZM4.623-5.008v2.031h.891a1.351,1.351,0,0,0,.455-.074,1.054,1.054,0,0,0,.361-.213.965.965,0,0,0,.238-.34,1.138,1.138,0,0,0,.086-.451.878.878,0,0,0-.291-.7,1.25,1.25,0,0,0-.842-.252Zm4.371-.008A.406.406,0,0,1,8.7-5.133a.4.4,0,0,1-.121-.3.4.4,0,0,1,.121-.3.4.4,0,0,1,.293-.119.414.414,0,0,1,.3.119.4.4,0,0,1,.123.3.4.4,0,0,1-.123.293A.41.41,0,0,1,8.994-5.016ZM9.307,0H8.666V-4h.641Zm4.711-.32q0,2.2-2.109,2.2a2.832,2.832,0,0,1-1.3-.281V.961a2.663,2.663,0,0,0,1.289.375q1.477,0,1.477-1.57V-.672h-.016a1.5,1.5,0,0,1-1.375.766,1.5,1.5,0,0,1-1.2-.533,2.131,2.131,0,0,1-.455-1.432,2.49,2.49,0,0,1,.49-1.621,1.638,1.638,0,0,1,1.342-.6,1.3,1.3,0,0,1,1.2.648h.016V-4h.641Zm-.641-1.488V-2.4a1.144,1.144,0,0,0-.322-.816,1.061,1.061,0,0,0-.8-.34,1.112,1.112,0,0,0-.93.432,1.927,1.927,0,0,0-.336,1.209,1.654,1.654,0,0,0,.322,1.068,1.041,1.041,0,0,0,.854.4,1.115,1.115,0,0,0,.877-.383A1.427,1.427,0,0,0,13.377-1.809ZM18.635,0h-.641V-2.3q0-1.25-.93-1.25a1.014,1.014,0,0,0-.789.361,1.346,1.346,0,0,0-.32.928V0h-.641V-5.922h.641v2.586h.016a1.455,1.455,0,0,1,1.313-.758q1.352,0,1.352,1.629ZM21.7-.039a1.235,1.235,0,0,1-.6.125q-1.051,0-1.051-1.172V-3.453h-.687V-4h.688v-.977l.641-.207V-4H21.7v.547H20.689V-1.2a.934.934,0,0,0,.137.574.546.546,0,0,0,.453.172A.674.674,0,0,0,21.7-.586Zm.613-.105V-.832a1.9,1.9,0,0,0,1.152.387q.844,0,.844-.562a.488.488,0,0,0-.072-.271.72.72,0,0,0-.2-.2,1.5,1.5,0,0,0-.289-.154q-.166-.068-.357-.143a4.6,4.6,0,0,1-.467-.213,1.41,1.41,0,0,1-.336-.242.9.9,0,0,1-.2-.307,1.085,1.085,0,0,1-.068-.4.956.956,0,0,1,.129-.5,1.143,1.143,0,0,1,.344-.363,1.6,1.6,0,0,1,.49-.221,2.175,2.175,0,0,1,.568-.074,2.3,2.3,0,0,1,.93.18v.648a1.812,1.812,0,0,0-1.016-.289,1.187,1.187,0,0,0-.324.041.794.794,0,0,0-.248.115.532.532,0,0,0-.16.178.468.468,0,0,0-.057.229.548.548,0,0,0,.057.262.576.576,0,0,0,.166.188,1.269,1.269,0,0,0,.266.148q.156.066.355.145a4.947,4.947,0,0,1,.477.209,1.635,1.635,0,0,1,.359.242.946.946,0,0,1,.229.311,1,1,0,0,1,.08.418.985.985,0,0,1-.131.516,1.122,1.122,0,0,1-.35.363,1.6,1.6,0,0,1-.5.215,2.488,2.488,0,0,1-.6.07A2.269,2.269,0,0,1,22.311-.145ZM32.24,0h-.781l-.937-1.57a3.42,3.42,0,0,0-.25-.373,1.425,1.425,0,0,0-.248-.252.859.859,0,0,0-.273-.143,1.124,1.124,0,0,0-.33-.045h-.539V0h-.656V-5.6H29.9a2.383,2.383,0,0,1,.678.092,1.516,1.516,0,0,1,.539.279,1.3,1.3,0,0,1,.357.467,1.548,1.548,0,0,1,.129.654,1.576,1.576,0,0,1-.088.537,1.4,1.4,0,0,1-.25.436,1.515,1.515,0,0,1-.391.326,1.994,1.994,0,0,1-.514.209v.016a1.181,1.181,0,0,1,.244.143,1.344,1.344,0,0,1,.2.189,2.509,2.509,0,0,1,.186.248q.092.139.205.322ZM28.881-5.008v2.031h.891a1.351,1.351,0,0,0,.455-.074,1.054,1.054,0,0,0,.361-.213.965.965,0,0,0,.238-.34,1.138,1.138,0,0,0,.086-.451.878.878,0,0,0-.291-.7,1.25,1.25,0,0,0-.842-.252ZM35.9-1.84H33.08a1.5,1.5,0,0,0,.359,1.031,1.239,1.239,0,0,0,.945.363,1.965,1.965,0,0,0,1.242-.445v.6a2.322,2.322,0,0,1-1.395.383A1.691,1.691,0,0,1,32.9-.451a2.23,2.23,0,0,1-.484-1.533,2.187,2.187,0,0,1,.529-1.521,1.7,1.7,0,0,1,1.314-.588,1.5,1.5,0,0,1,1.215.508,2.117,2.117,0,0,1,.43,1.41Zm-.656-.543a1.3,1.3,0,0,0-.268-.863.912.912,0,0,0-.732-.309,1.035,1.035,0,0,0-.77.324,1.471,1.471,0,0,0-.391.848ZM36.631-.145V-.832a1.9,1.9,0,0,0,1.152.387q.844,0,.844-.562a.488.488,0,0,0-.072-.271.72.72,0,0,0-.2-.2,1.5,1.5,0,0,0-.289-.154q-.166-.068-.357-.143a4.6,4.6,0,0,1-.467-.213,1.41,1.41,0,0,1-.336-.242.9.9,0,0,1-.2-.307,1.085,1.085,0,0,1-.068-.4.956.956,0,0,1,.129-.5,1.143,1.143,0,0,1,.344-.363,1.6,1.6,0,0,1,.49-.221,2.175,2.175,0,0,1,.568-.074,2.3,2.3,0,0,1,.93.18v.648a1.812,1.812,0,0,0-1.016-.289,1.187,1.187,0,0,0-.324.041.794.794,0,0,0-.248.115.532.532,0,0,0-.16.178.468.468,0,0,0-.057.229.548.548,0,0,0,.057.262.576.576,0,0,0,.166.188,1.269,1.269,0,0,0,.266.148q.156.066.355.145a4.947,4.947,0,0,1,.477.209,1.634,1.634,0,0,1,.359.242.946.946,0,0,1,.229.311,1,1,0,0,1,.08.418.985.985,0,0,1-.131.516,1.122,1.122,0,0,1-.35.363,1.6,1.6,0,0,1-.5.215,2.488,2.488,0,0,1-.6.07A2.269,2.269,0,0,1,36.631-.145Zm6.852-1.7H40.658a1.5,1.5,0,0,0,.359,1.031,1.239,1.239,0,0,0,.945.363,1.965,1.965,0,0,0,1.242-.445v.6a2.322,2.322,0,0,1-1.395.383,1.691,1.691,0,0,1-1.332-.545,2.23,2.23,0,0,1-.484-1.533,2.187,2.187,0,0,1,.529-1.521,1.7,1.7,0,0,1,1.314-.588,1.5,1.5,0,0,1,1.215.508,2.117,2.117,0,0,1,.43,1.41Zm-.656-.543a1.3,1.3,0,0,0-.268-.863.912.912,0,0,0-.732-.309,1.035,1.035,0,0,0-.77.324,1.471,1.471,0,0,0-.391.848Zm3.711-.969a.783.783,0,0,0-.484-.129.818.818,0,0,0-.686.387,1.788,1.788,0,0,0-.275,1.055V0h-.641V-4h.641v.824h.016a1.4,1.4,0,0,1,.418-.658.953.953,0,0,1,.629-.236,1.046,1.046,0,0,1,.383.055ZM50.377-4,48.783,0h-.629L46.639-4h.7l1.016,2.906a2.609,2.609,0,0,1,.141.559h.016a2.641,2.641,0,0,1,.125-.543L49.7-4Zm3.9,2.16H51.455a1.5,1.5,0,0,0,.359,1.031,1.239,1.239,0,0,0,.945.363A1.965,1.965,0,0,0,54-.891v.6a2.322,2.322,0,0,1-1.395.383,1.691,1.691,0,0,1-1.332-.545,2.23,2.23,0,0,1-.484-1.533,2.187,2.187,0,0,1,.529-1.521,1.7,1.7,0,0,1,1.314-.588,1.5,1.5,0,0,1,1.215.508,2.117,2.117,0,0,1,.43,1.41Zm-.656-.543a1.3,1.3,0,0,0-.268-.863.912.912,0,0,0-.732-.309,1.035,1.035,0,0,0-.77.324,1.471,1.471,0,0,0-.391.848ZM58.662,0h-.641V-.68h-.016a1.479,1.479,0,0,1-1.375.773,1.494,1.494,0,0,1-1.205-.537,2.2,2.2,0,0,1-.451-1.463,2.4,2.4,0,0,1,.5-1.59,1.649,1.649,0,0,1,1.332-.6,1.282,1.282,0,0,1,1.2.648h.016V-5.922h.641Zm-.641-1.809V-2.4a1.144,1.144,0,0,0-.32-.82,1.074,1.074,0,0,0-.812-.336,1.106,1.106,0,0,0-.922.43,1.883,1.883,0,0,0-.336,1.188,1.693,1.693,0,0,0,.322,1.092,1.053,1.053,0,0,0,.865.4,1.094,1.094,0,0,0,.869-.387A1.441,1.441,0,0,0,58.021-1.809ZM60.182.086a.415.415,0,0,1-.307-.129.424.424,0,0,1-.127-.309.431.431,0,0,1,.127-.311.412.412,0,0,1,.307-.131.422.422,0,0,1,.313.131.427.427,0,0,1,.129.311.421.421,0,0,1-.129.309A.426.426,0,0,1,60.182.086Zm7.6-.32a3.285,3.285,0,0,1-1.547.328,2.5,2.5,0,0,1-1.914-.77A2.84,2.84,0,0,1,63.6-2.7a2.976,2.976,0,0,1,.809-2.172A2.744,2.744,0,0,1,66.463-5.7a3.288,3.288,0,0,1,1.32.23v.7A2.677,2.677,0,0,0,66.455-5.1a2.038,2.038,0,0,0-1.564.645,2.428,2.428,0,0,0-.6,1.723A2.31,2.31,0,0,0,64.852-1.1,1.907,1.907,0,0,0,66.322-.5a2.759,2.759,0,0,0,1.461-.375ZM73.26,0h-.727l-.594-1.57H69.564L69.006,0h-.73l2.148-5.6h.68ZM71.725-2.16l-.879-2.387a2.285,2.285,0,0,1-.086-.375h-.016a2.092,2.092,0,0,1-.09.375L69.783-2.16ZM76.99,0H74.084V-5.6h.656V-.594h2.25Zm2.82-1.977H77.678v-.5h2.133ZM84.3-2.824a5.5,5.5,0,0,1-.127,1.246,2.9,2.9,0,0,1-.367.916,1.653,1.653,0,0,1-.59.566A1.615,1.615,0,0,1,82.42.1a1.508,1.508,0,0,1-.752-.186,1.576,1.576,0,0,1-.557-.541,2.742,2.742,0,0,1-.344-.873,5.4,5.4,0,0,1-.117-1.186,6.111,6.111,0,0,1,.123-1.3,2.966,2.966,0,0,1,.361-.943,1.608,1.608,0,0,1,.592-.574,1.662,1.662,0,0,1,.811-.193Q84.3-5.7,84.3-2.824Zm-.656.063q0-2.391-1.137-2.391-1.2,0-1.2,2.434,0,2.27,1.176,2.27Q83.643-.449,83.643-2.762ZM87.455,0h-.641V-4.84a1.483,1.483,0,0,1-.217.17,3.534,3.534,0,0,1-.32.189q-.178.094-.375.176a2.725,2.725,0,0,1-.385.129v-.648a3.724,3.724,0,0,0,.447-.158q.236-.1.465-.223t.432-.258a3.427,3.427,0,0,0,.352-.264h.242Zm5.207-1.586A1.633,1.633,0,0,1,92.52-.9a1.522,1.522,0,0,1-.4.531,1.857,1.857,0,0,1-.623.342,2.52,2.52,0,0,1-.8.121,2.327,2.327,0,0,1-1.273-.3V-.895a2.041,2.041,0,0,0,1.3.445,1.762,1.762,0,0,0,.529-.074,1.187,1.187,0,0,0,.406-.215.954.954,0,0,0,.262-.34,1.061,1.061,0,0,0,.092-.449q0-1.1-1.562-1.1h-.465v-.543h.441Q91.8-3.168,91.8-4.2q0-.953-1.055-.953a1.8,1.8,0,0,0-1.113.4v-.621a2.434,2.434,0,0,1,1.273-.32,1.957,1.957,0,0,1,.637.1,1.459,1.459,0,0,1,.488.273,1.212,1.212,0,0,1,.314.422,1.3,1.3,0,0,1,.111.543,1.367,1.367,0,0,1-1.117,1.422v.016a1.767,1.767,0,0,1,.527.139,1.407,1.407,0,0,1,.418.279,1.245,1.245,0,0,1,.275.4A1.291,1.291,0,0,1,92.662-1.586Zm3.605-2.547a1.158,1.158,0,0,0-.08-.449.89.89,0,0,0-.219-.318.9.9,0,0,0-.326-.189,1.277,1.277,0,0,0-.406-.062,1.344,1.344,0,0,0-.367.051,1.785,1.785,0,0,0-.35.141,2.151,2.151,0,0,0-.328.215,2.37,2.37,0,0,0-.295.277v-.687a1.915,1.915,0,0,1,.6-.4,2.125,2.125,0,0,1,.814-.139,1.966,1.966,0,0,1,.637.1,1.46,1.46,0,0,1,.508.291,1.345,1.345,0,0,1,.338.473,1.594,1.594,0,0,1,.123.645,2.21,2.21,0,0,1-.076.6,1.86,1.86,0,0,1-.23.508,2.45,2.45,0,0,1-.389.457,5.506,5.506,0,0,1-.551.445q-.395.281-.65.48a2.875,2.875,0,0,0-.406.373,1.083,1.083,0,0,0-.211.348,1.215,1.215,0,0,0-.061.4h2.789V0H93.678V-.277a2.311,2.311,0,0,1,.078-.633,1.643,1.643,0,0,1,.258-.52,2.883,2.883,0,0,1,.471-.492q.291-.246.713-.555a4.507,4.507,0,0,0,.51-.418,2.173,2.173,0,0,0,.33-.4,1.431,1.431,0,0,0,.178-.4A1.743,1.743,0,0,0,96.268-4.133Zm3.992,2.156H98.127v-.5h2.133ZM103.592,0h-.641V-4.84a1.483,1.483,0,0,1-.217.17,3.534,3.534,0,0,1-.32.189q-.178.094-.375.176a2.725,2.725,0,0,1-.385.129v-.648a3.724,3.724,0,0,0,.447-.158q.236-.1.465-.223T103-5.463a3.427,3.427,0,0,0,.352-.264h.242Zm10.121,0h-.652V-3.758q0-.445.055-1.09H113.1a3.485,3.485,0,0,1-.168.543L111.018,0h-.32l-1.91-4.273a3.348,3.348,0,0,1-.168-.574H108.6q.031.336.031,1.1V0H108V-5.6h.867L110.588-1.7a5,5,0,0,1,.258.672h.023q.168-.461.27-.687L112.893-5.6h.82Zm4.25,0h-.641V-.625h-.016a1.341,1.341,0,0,1-1.23.719,1.315,1.315,0,0,1-.936-.316,1.1,1.1,0,0,1-.338-.84q0-1.121,1.32-1.3l1.2-.168q0-1.02-.824-1.02a1.969,1.969,0,0,0-1.3.492v-.656a2.479,2.479,0,0,1,1.359-.375q1.41,0,1.41,1.492Zm-.641-2.023-.965.133a1.566,1.566,0,0,0-.672.221.637.637,0,0,0-.227.561.611.611,0,0,0,.209.479.808.808,0,0,0,.557.186,1.028,1.028,0,0,0,.787-.334,1.193,1.193,0,0,0,.311-.846ZM122.354-4,120.514.641q-.492,1.242-1.383,1.242a1.466,1.466,0,0,1-.418-.051V1.258a1.187,1.187,0,0,0,.379.07.785.785,0,0,0,.727-.578l.32-.758L118.576-4h.711l1.082,3.078q.02.059.082.3h.023q.02-.094.078-.3L121.689-4Zm5.246-.133a1.158,1.158,0,0,0-.08-.449A.89.89,0,0,0,127.3-4.9a.9.9,0,0,0-.326-.189,1.277,1.277,0,0,0-.406-.062,1.344,1.344,0,0,0-.367.051,1.785,1.785,0,0,0-.35.141,2.151,2.151,0,0,0-.328.215,2.37,2.37,0,0,0-.295.277v-.687a1.915,1.915,0,0,1,.6-.4,2.125,2.125,0,0,1,.814-.139,1.966,1.966,0,0,1,.637.1,1.46,1.46,0,0,1,.508.291,1.345,1.345,0,0,1,.338.473,1.594,1.594,0,0,1,.123.645,2.21,2.21,0,0,1-.076.6,1.861,1.861,0,0,1-.23.508,2.45,2.45,0,0,1-.389.457,5.506,5.506,0,0,1-.551.445q-.395.281-.65.48a2.875,2.875,0,0,0-.406.373,1.083,1.083,0,0,0-.211.348,1.215,1.215,0,0,0-.061.4h2.789V0H125.01V-.277a2.311,2.311,0,0,1,.078-.633,1.643,1.643,0,0,1,.258-.52,2.883,2.883,0,0,1,.471-.492q.291-.246.713-.555a4.507,4.507,0,0,0,.51-.418,2.173,2.173,0,0,0,.33-.4,1.431,1.431,0,0,0,.178-.4A1.743,1.743,0,0,0,127.6-4.133Zm5.281,1.309a5.5,5.5,0,0,1-.127,1.246,2.9,2.9,0,0,1-.367.916,1.653,1.653,0,0,1-.59.566A1.615,1.615,0,0,1,131,.1a1.508,1.508,0,0,1-.752-.186,1.576,1.576,0,0,1-.557-.541,2.742,2.742,0,0,1-.344-.873,5.4,5.4,0,0,1-.117-1.186,6.111,6.111,0,0,1,.123-1.3,2.966,2.966,0,0,1,.361-.943,1.608,1.608,0,0,1,.592-.574,1.662,1.662,0,0,1,.811-.193Q132.881-5.7,132.881-2.824Zm-.656.063q0-2.391-1.137-2.391-1.2,0-1.2,2.434,0,2.27,1.176,2.27Q132.225-.449,132.225-2.762Zm4-1.371a1.158,1.158,0,0,0-.08-.449.89.89,0,0,0-.219-.318.9.9,0,0,0-.326-.189,1.277,1.277,0,0,0-.406-.062,1.344,1.344,0,0,0-.367.051,1.785,1.785,0,0,0-.35.141,2.151,2.151,0,0,0-.328.215,2.37,2.37,0,0,0-.295.277v-.687a1.915,1.915,0,0,1,.6-.4,2.125,2.125,0,0,1,.814-.139,1.966,1.966,0,0,1,.637.1,1.46,1.46,0,0,1,.508.291,1.345,1.345,0,0,1,.338.473,1.594,1.594,0,0,1,.123.645,2.21,2.21,0,0,1-.076.6,1.861,1.861,0,0,1-.23.508,2.45,2.45,0,0,1-.389.457,5.506,5.506,0,0,1-.551.445q-.395.281-.65.48a2.875,2.875,0,0,0-.406.373,1.082,1.082,0,0,0-.211.348,1.215,1.215,0,0,0-.061.4h2.789V0h-3.457V-.277a2.311,2.311,0,0,1,.078-.633,1.643,1.643,0,0,1,.258-.52,2.883,2.883,0,0,1,.471-.492q.291-.246.713-.555a4.507,4.507,0,0,0,.51-.418,2.173,2.173,0,0,0,.33-.4,1.431,1.431,0,0,0,.178-.4A1.743,1.743,0,0,0,136.225-4.133Zm5.289,2.355a2.075,2.075,0,0,1-.133.754,1.812,1.812,0,0,1-.367.594,1.64,1.64,0,0,1-.559.389,1.769,1.769,0,0,1-.7.139A1.6,1.6,0,0,1,139-.078a1.6,1.6,0,0,1-.566-.506,2.426,2.426,0,0,1-.354-.807,4.37,4.37,0,0,1-.121-1.074,5.048,5.048,0,0,1,.162-1.326,3.222,3.222,0,0,1,.461-1.02,2.125,2.125,0,0,1,.721-.654,1.931,1.931,0,0,1,.941-.23,2.267,2.267,0,0,1,.93.16v.605a1.974,1.974,0,0,0-.914-.223,1.362,1.362,0,0,0-.676.168,1.552,1.552,0,0,0-.516.475,2.315,2.315,0,0,0-.33.74,3.755,3.755,0,0,0-.115.965h.016a1.345,1.345,0,0,1,1.277-.7,1.681,1.681,0,0,1,.662.125,1.43,1.43,0,0,1,.5.354,1.592,1.592,0,0,1,.322.545A2.074,2.074,0,0,1,141.514-1.777Zm-.656.082a1.743,1.743,0,0,0-.074-.527,1.144,1.144,0,0,0-.213-.4.918.918,0,0,0-.342-.252,1.15,1.15,0,0,0-.461-.088,1.079,1.079,0,0,0-.441.09,1.1,1.1,0,0,0-.352.244,1.131,1.131,0,0,0-.232.359,1.138,1.138,0,0,0-.084.436,1.737,1.737,0,0,0,.082.541,1.4,1.4,0,0,0,.23.439,1.1,1.1,0,0,0,.354.295.966.966,0,0,0,.455.107,1.042,1.042,0,0,0,.441-.092.985.985,0,0,0,.34-.256,1.184,1.184,0,0,0,.219-.393A1.556,1.556,0,0,0,140.857-1.7Z" transform="translate(141.201 5.922)" fill="#44264a"/></svg>