<svg width="13" height="18" viewBox="0 0 13 18" fill="none" xmlns="http://www.w3.org/2000/svg">
<mask id="mask0_1_181" style="mask-type:alpha" maskUnits="userSpaceOnUse" x="0" y="0" width="13" height="18">
<path d="M0 0H12.9822V17.9869H0V0Z" fill="black"/>
</mask>
<g mask="url(#mask0_1_181)">
<path d="M4.64608 17.9869C4.94558 17.9869 5.3397 17.819 5.52185 17.614L12.8456 9.36746C13.0277 9.16239 13.0279 8.82672 12.8457 8.62154L5.52171 0.373021C5.3397 0.167836 4.94558 0 4.64608 0H0.305644C0.00614366 0 -0.0898326 0.167836 0.0921819 0.373021L7.41619 8.62154C7.5982 8.82672 7.5982 9.16239 7.41605 9.36746L0.0923181 17.614C-0.0898326 17.819 0.00614366 17.9869 0.305644 17.9869H4.64608Z" fill="white"/>
</g>
</svg>
